<?xml version="1.0" encoding="UTF-8"?>
<svg version="1.1" xmlns="http://www.w3.org/2000/svg" width="4446" height="2248">
<path d="M0 0 C1.70518799 0.98419922 1.70518799 0.98419922 3.44482422 1.98828125 C47.47789195 27.40774584 89.90779387 55.71097589 130 87 C130.57057129 87.4444043 131.14114258 87.88880859 131.72900391 88.34667969 C138.67583545 93.7609269 145.56827818 99.23234646 152.3671875 104.83203125 C154.11729526 106.27314373 155.87249612 107.70809403 157.6328125 109.13671875 C167.91649203 117.48658682 177.97153262 126.09409372 187.78125 134.99609375 C189.79308393 136.81311982 191.82660434 138.59944392 193.875 140.375 C198.21108859 144.15495698 202.44696322 148.04197688 206.67480469 151.94189453 C208.70147411 153.80932868 210.73596274 155.66626514 212.77905273 157.51586914 C222.0681698 165.97265883 230.9611196 174.80843081 239.83154297 183.70117188 C242.3878593 186.26288646 244.94952929 188.81916106 247.51171875 191.375 C249.16177933 193.02572086 250.81152998 194.6767516 252.4609375 196.328125 C253.21523041 197.08039368 253.96952332 197.83266235 254.74667358 198.60772705 C258.80044081 202.67928368 262.6943595 206.83331079 266.434021 211.19590759 C269.15024652 214.32514613 272.02497302 217.30564953 274.875 220.3125 C279.7652533 225.50758684 284.40429718 230.81352758 288.859375 236.390625 C291.15120465 239.18431516 293.55231812 241.84208778 296 244.5 C300.89374231 249.82974393 305.46107316 255.36770251 310 261 C310.99768805 262.21827563 311.99644911 263.43567307 312.99609375 264.65234375 C325.2660434 279.61159743 336.87734163 295.04205389 348.29003906 310.66210938 C349.92549548 312.89813603 351.56791343 315.12890664 353.2109375 317.359375 C362.21169005 329.63716797 370.64405913 342.2771465 379 355 C379.51836426 355.78793945 380.03672852 356.57587891 380.57080078 357.38769531 C396.61522417 381.8233248 411.66245804 406.90587643 425.66894531 432.56445312 C426.59718354 434.26293159 427.52911443 435.95939494 428.46386719 437.65429688 C460.30928916 495.44267062 486.78449493 555.66113069 507.50393677 618.30551147 C508.11411259 620.14832584 508.72764027 621.99003465 509.34494019 623.83047485 C513.55534856 636.42106036 516.68660117 648.92609694 519 662 C501.10560115 661.37390392 483.23339247 660.47332009 465.36230469 659.38037109 C462.49844243 659.20594451 459.63426284 659.03987428 456.76953125 658.88037109 C453.24508234 658.68408247 449.72169214 658.47424325 446.1986351 658.25442123 C444.23428525 658.13517828 442.26912685 658.02950233 440.3039856 657.92410278 C439.12359711 657.84747406 437.94320862 657.77084534 436.72705078 657.69189453 C435.6899295 657.630513 434.65280823 657.56913147 433.58425903 657.50588989 C430.66462402 656.9343474 429.75229472 656.35861286 428 654 C426.9730121 651.65377405 426.06477106 649.35586997 425.20703125 646.94921875 C424.6624322 645.47048141 424.11766507 643.99180595 423.57275391 642.51318359 C423.287005 641.72868835 423.0012561 640.94419312 422.70684814 640.13592529 C404.75734601 590.99620796 383.19293454 542.42856583 358.29394531 496.39648438 C356.85023015 493.72261494 355.42129017 491.0410812 353.9921875 488.359375 C338.9256598 460.19321722 322.59887597 432.66028195 305 406 C304.58298828 405.36690918 304.16597656 404.73381836 303.73632812 404.08154297 C288.34405812 380.74700571 272.07590188 358.13271402 255 336 C254.48695312 335.33484375 253.97390625 334.6696875 253.4453125 333.984375 C239.04296591 315.3647667 223.81327928 297.43288889 208 280 C206.56225299 278.39605471 205.12475923 276.79188239 203.6875 275.1875 C202.12606053 273.45737561 200.56340561 271.72834792 199 270 C198.1944165 269.10756592 197.38883301 268.21513184 196.55883789 267.2956543 C188.35432576 258.27490134 179.78588653 249.63254709 171.15332031 241.02294922 C168.73646008 238.61149034 166.3250471 236.19467561 163.9140625 233.77734375 C162.35448749 232.21842898 160.7946026 230.65982414 159.234375 229.1015625 C158.17159332 228.03574448 158.17159332 228.03574448 157.08734131 226.94839478 C153.11559273 222.99501925 149.05002666 219.21105128 144.79811096 215.55999756 C141.84806043 213.00060511 139.02805047 210.30443973 136.1875 207.625 C131.24251138 202.99727689 126.18772762 198.60172182 120.8984375 194.3671875 C117.42467372 191.53012436 114.05987394 188.58108982 110.6875 185.625 C104.25926215 180.01468043 97.66117884 174.6853122 90.90576172 169.47607422 C88.84672715 167.88128521 86.7997111 166.27187709 84.75390625 164.66015625 C74.36329145 156.49171301 63.77272563 148.65580435 53 141 C52.27393555 140.48163574 51.54787109 139.96327148 50.79980469 139.42919922 C12.91835682 112.38676071 -26.96550807 88.19387785 -68.35546875 66.91796875 C-71.56541413 65.26688373 -74.76324473 63.60348159 -77.92578125 61.86328125 C-90.61239448 54.88344906 -103.82143647 48.97874739 -117 43 C-117.66014099 42.69968872 -118.32028198 42.39937744 -119.00042725 42.08996582 C-141.36514016 31.91920294 -163.97484721 22.57235382 -187 14 C-187.81811157 13.69535828 -188.63622314 13.39071655 -189.47912598 13.07684326 C-276.97124256 -19.42089412 -368.14987325 -42.14890727 -471.4375 -53.3125 C-472.19037292 -53.38804108 -472.94324585 -53.46358215 -473.71893311 -53.54141235 C-479.47356615 -54.10850956 -485.23326144 -54.57460166 -491 -55 C-492.15883698 -55.08613556 -493.31767395 -55.17227112 -494.5116272 -55.26101685 C-517.38631037 -56.907482 -540.19273611 -57.3662373 -563.12235641 -57.31805801 C-565.85982065 -57.31240223 -568.59727864 -57.30959147 -571.33474731 -57.30697632 C-597.8012347 -57.27024999 -624.14491434 -56.89928394 -650.50042725 -54.25 C-653.0979958 -53.99019874 -655.69653308 -53.74243842 -658.29541016 -53.49609375 C-746.52705106 -45.02442896 -833.74003223 -24.23159795 -972 31 C-973.12921875 31.5067627 -974.2584375 32.01352539 -975.421875 32.53564453 C-1003.46402583 45.19580335 -1031.23126747 58.8186698 -1058 74 C-1059.01143066 74.57282715 -1060.02286133 75.1456543 -1061.06494141 75.73583984 C-1093.30608818 94.05301467 -1124.73848518 113.55894276 -1155 135 C-1156.29293833 135.91150148 -1157.5859035 136.8229649 -1158.87890625 137.734375 C-1173.53672396 148.10412268 -1188.00364688 158.7511364 -1202 170 C-1202.6403418 170.5141748 -1203.28068359 171.02834961 -1203.94042969 171.55810547 C-1211.51450903 177.65141386 -1219.02463824 183.81282913 -1226.42041016 190.12158203 C-1229.71606818 192.92990448 -1233.05946283 195.66666116 -1236.4375 198.375 C-1241.45175024 202.45091102 -1246.18042287 206.78852794 -1250.87866211 211.22021484 C-1254.52743107 214.65970279 -1258.25475058 217.98765192 -1262.03686523 221.27978516 C-1274.59255203 232.28182086 -1286.31719168 244.21165926 -1298.125 256 C-1298.85500214 256.72741394 -1299.58500427 257.45482788 -1300.33712769 258.20428467 C-1302.45950366 260.3207328 -1304.5780332 262.44095437 -1306.6953125 264.5625 C-1307.32712936 265.19233795 -1307.95894623 265.8221759 -1308.60990906 266.47109985 C-1312.35942656 270.23984533 -1315.92471642 274.12108937 -1319.390625 278.1525116 C-1322.12584639 281.29241982 -1325.0108243 284.29072227 -1327.875 287.3125 C-1332.76849848 292.51103431 -1337.4111012 297.81990353 -1341.8671875 303.40234375 C-1344.11129275 306.13554886 -1346.46867753 308.72136593 -1348.875 311.3125 C-1353.03806682 315.84063576 -1356.86214306 320.53513271 -1360.61938477 325.39697266 C-1363.68640579 329.35692386 -1366.83567555 333.23258242 -1370.0480957 337.07543945 C-1377.51007261 346.00771594 -1384.48880797 355.22644649 -1391.30615234 364.65771484 C-1392.93346586 366.90799531 -1394.56908131 369.15198582 -1396.20703125 371.39453125 C-1450.04129711 445.27347056 -1494.1400964 526.13280063 -1538 643 C-1538.42282257 644.23399536 -1538.42282257 644.23399536 -1538.85418701 645.49291992 C-1568.15365396 731.25205972 -1586.26629418 820.36221523 -1595 967 C-1595.03504639 968.78567383 -1595.03504639 968.78567383 -1595.07080078 970.60742188 C-1596.55398604 1060.79505663 -1585.21517666 1151.79914822 -1518 1375 C-1517.74496704 1375.61387573 -1517.48993408 1376.22775146 -1517.22717285 1376.86022949 C-1510.20000626 1393.74518039 -1502.7796433 1410.44893768 -1495 1427 C-1494.48244141 1428.10359863 -1493.96488281 1429.20719727 -1493.43164062 1430.34423828 C-1480.74136177 1457.29781442 -1466.91668916 1483.60534815 -1451.66308594 1509.20166016 C-1449.98401758 1512.02689233 -1448.32188468 1514.86147444 -1446.6640625 1517.69921875 C-1436.6211047 1534.86503118 -1426.18174529 1551.61263656 -1414.5859375 1567.77392578 C-1412.32627452 1570.94566331 -1410.10752756 1574.14534268 -1407.88549805 1577.34350586 C-1397.46164008 1592.33240938 -1386.70316504 1607.04547586 -1375.32666016 1621.32617188 C-1373.96165981 1623.04837327 -1372.61004984 1624.78034824 -1371.26171875 1626.515625 C-1365.86805917 1633.4496489 -1360.3313022 1640.22744516 -1354.625 1646.90625 C-1352.16084036 1649.7955132 -1349.76339 1652.73518458 -1347.375 1655.6875 C-1343.80240326 1660.08014119 -1340.06649996 1664.28392105 -1336.25 1668.46484375 C-1333.91110579 1671.10016031 -1331.70284117 1673.81277292 -1329.5 1676.5625 C-1325.94453204 1680.96037849 -1322.16138802 1684.94739146 -1318.11328125 1688.890625 C-1316.16104942 1690.83924827 -1314.35299104 1692.84090628 -1312.5625 1694.9375 C-1309.12563389 1698.94850616 -1305.40799257 1702.62905986 -1301.625 1706.3125 C-1299.55615952 1708.43059859 -1297.61541922 1710.56988619 -1295.68359375 1712.80859375 C-1291.98353785 1717.0751175 -1288.06616781 1721.08199709 -1284.0625 1725.0625 C-1283.39798828 1725.73087891 -1282.73347656 1726.39925781 -1282.04882812 1727.08789062 C-1278.10015178 1731.02890707 -1274.03343968 1734.76372975 -1269.81030273 1738.40795898 C-1267.4296069 1740.50162285 -1265.21113363 1742.729106 -1263 1745 C-1259.4882345 1748.54918157 -1255.90991099 1751.91968457 -1252.1171875 1755.1640625 C-1249.59400545 1757.3520617 -1247.14445481 1759.61293113 -1244.6875 1761.875 C-1240.24749216 1765.92521292 -1235.68065719 1769.75534122 -1231.00390625 1773.52734375 C-1227.50332522 1776.40883633 -1224.09742675 1779.38744562 -1220.6875 1782.375 C-1214.25910123 1787.98515046 -1207.66119241 1793.31467734 -1200.90576172 1798.52392578 C-1198.84672715 1800.11871479 -1196.7997111 1801.72812291 -1194.75390625 1803.33984375 C-1184.36329145 1811.50828699 -1173.77272563 1819.34419565 -1163 1827 C-1162.27393555 1827.51836426 -1161.54787109 1828.03672852 -1160.79980469 1828.57080078 C-1120.96736274 1857.00599592 -1078.92342063 1882.08481969 -1035.32910156 1904.30175781 C-1033.15945746 1905.40853725 -1030.99202034 1906.51965711 -1028.82714844 1907.63574219 C-953.67795046 1946.37608399 -871.93276994 1973.78549524 -602 2019 C-600.71351562 2019.07202637 -599.42703125 2019.14405273 -598.1015625 2019.21826172 C-509.60538428 2023.86234011 -420.23967107 2015.00590027 -94.125 1907.75 C-93.13736664 1907.26024689 -92.14973328 1906.77049377 -91.13217163 1906.26589966 C-77.40483541 1899.44470554 -63.99702468 1892.17591971 -50.70501709 1884.5428009 C-46.84882523 1882.34342985 -42.96903911 1880.18720281 -39.08909607 1878.03009033 C-27.11817036 1871.37282043 -15.49686186 1864.21084437 -3.93896484 1856.86425781 C-1.06617956 1855.04197932 1.81520346 1853.23412754 4.69921875 1851.4296875 C16.27071493 1844.16562917 27.55033825 1836.57143999 38.67871094 1828.64648438 C40.87338809 1827.0898055 43.07839131 1825.54947652 45.2890625 1824.015625 C55.91617478 1816.6248552 66.21110502 1808.83272377 76.46923828 1800.93994141 C78.84473908 1799.1190144 81.23014735 1797.31229525 83.62109375 1795.51171875 C91.57603808 1789.50957751 99.28061017 1783.32116569 106.79296875 1776.7734375 C109.70416057 1774.23886535 112.68234301 1771.79782812 115.6875 1769.375 C120.42977487 1765.52538863 124.94928961 1761.47287329 129.4453125 1757.33984375 C131.62697815 1755.34165152 133.83011309 1753.37851111 136.0625 1751.4375 C140.75869665 1747.34604497 145.39826508 1743.19752848 150 1739 C150.50337891 1738.54318848 151.00675781 1738.08637695 151.52539062 1737.61572266 C161.82977739 1728.23025792 171.70005764 1718.40701442 181.5625 1708.5625 C182.22270142 1707.90488678 182.88290283 1707.24727356 183.56311035 1706.56973267 C192.80397509 1697.39361507 192.80397509 1697.39361507 201.52026367 1687.72485352 C204.19297936 1684.60940453 207.0518473 1681.66601924 209.875 1678.6875 C214.79167008 1673.46398498 219.44695705 1668.1477081 223.92578125 1662.54296875 C226.04087596 1659.94988653 228.24518096 1657.472151 230.5 1655 C235.20423388 1649.82453026 239.61715487 1644.4485611 244 1639 C244.90210662 1637.89043217 245.80446083 1636.78106559 246.70703125 1635.671875 C254.42642723 1626.1463425 261.80755449 1616.38131865 269.11523438 1606.53759766 C270.94224301 1604.07776246 272.77548497 1601.62267565 274.609375 1599.16796875 C308.61648402 1553.50692305 337.81239924 1504.49611527 364 1454 C364.32484375 1453.37436157 364.6496875 1452.74872314 364.984375 1452.10412598 C375.52078357 1431.78181465 384.9767391 1411.04260065 394.10412598 1390.05413818 C394.94055859 1388.13629247 395.7825647 1386.22105134 396.62792969 1384.30712891 C404.58057549 1366.29492247 411.74838663 1348.01920367 418.75 1329.62109375 C419.01932846 1328.91374084 419.28865692 1328.20638794 419.56614685 1327.4776001 C421.76692072 1321.67045277 423.87710722 1315.83795515 426 1310 C455.37 1310 484.74 1310 515 1310 C512.75120847 1320.11956189 512.75120847 1320.11956189 510.99609375 1324.640625 C510.59414795 1325.68758545 510.19220215 1326.7345459 509.77807617 1327.81323242 C509.33568604 1328.94736572 508.8932959 1330.08149902 508.4375 1331.25 C507.7049682 1333.15124563 506.97248856 1335.0525117 506.24128723 1336.95426941 C505.70730857 1338.34289511 505.17260829 1339.73124351 504.63725281 1341.11933899 C502.38379964 1346.97123086 500.17909306 1352.84070472 497.984375 1358.71484375 C481.89203021 1401.74523971 464.25945702 1443.75407195 444 1485 C443.50757812 1486.00675781 443.01515625 1487.01351563 442.5078125 1488.05078125 C423.88191915 1526.07435911 402.33517696 1562.68644419 379 1598 C378.03610352 1599.46518066 378.03610352 1599.46518066 377.05273438 1600.95996094 C369.43835702 1612.52753612 361.76039824 1623.998388 353.44091797 1635.07177734 C351.80297698 1637.26365433 350.18372385 1639.46864466 348.56640625 1641.67578125 C341.82452561 1650.87530673 335.0141332 1660.00607114 328 1669 C327.10934315 1670.14971491 326.21871916 1671.29945528 325.328125 1672.44921875 C319.91393185 1679.4140276 314.34175477 1686.21379983 308.61328125 1692.921875 C306.22117731 1695.7270732 303.88544149 1698.57463157 301.5625 1701.4375 C293.75309504 1711.01166373 285.71841399 1720.36743443 277.2722168 1729.38623047 C274.71694216 1732.11756015 272.21827849 1734.88501144 269.76879883 1737.71191406 C257.96989468 1751.21666182 245.26018775 1763.90175745 232.56982422 1776.56054688 C229.97114686 1779.15379284 227.37795419 1781.75243948 224.78515625 1784.3515625 C223.10709188 1786.02896707 221.42871787 1787.70606194 219.75 1789.3828125 C218.60760864 1790.5282402 218.60760864 1790.5282402 217.44213867 1791.69680786 C213.32512202 1795.79601203 209.11788656 1799.72372678 204.71694946 1803.51663208 C202.79561742 1805.17657745 200.93963893 1806.89286327 199.10546875 1808.6484375 C198.46569092 1809.2566333 197.82591309 1809.8648291 197.16674805 1810.49145508 C196.51359619 1811.1130249 195.86044434 1811.73459473 195.1875 1812.375 C189.810985 1817.45735538 184.3612441 1822.28394154 178.57421875 1826.89453125 C175.78969652 1829.17200846 173.14586197 1831.56312008 170.5 1834 C165.17368912 1838.89506128 159.63059305 1843.4617902 154 1848 C152.22848705 1849.4575077 150.45765983 1850.91584922 148.6875 1852.375 C124.64490449 1872.02162165 99.7264331 1890.61836598 74 1908 C73.21286621 1908.53206055 72.42573242 1909.06412109 71.61474609 1909.61230469 C-3.96219316 1960.58519269 -85.26662872 2002.8063662 -524.375 2102.5625 C-525.10089325 2102.58334656 -525.8267865 2102.60419312 -526.57467651 2102.62567139 C-617.74122843 2105.19325505 -708.91409154 2095.38508915 -1014.19171143 2004.81915283 C-1015.96122545 2004.01756483 -1017.73230539 2003.21943647 -1019.50341797 2002.42138672 C-1046.98572385 1990.00055808 -1074.16342918 1976.7442126 -1100.24414062 1961.58300781 C-1103.18213207 1959.89538055 -1106.14165844 1958.25194662 -1109.109375 1956.6171875 C-1122.66609671 1949.14623559 -1135.88847735 1941.27638483 -1148.93798828 1932.95166016 C-1152.10787163 1930.93124495 -1155.28587742 1928.92405705 -1158.46484375 1926.91796875 C-1169.86539292 1919.70093439 -1181.08227994 1912.31670192 -1192.02148438 1904.41796875 C-1194.0284564 1902.97960578 -1196.05015629 1901.5648296 -1198.078125 1900.15625 C-1207.89342843 1893.32881495 -1217.42824352 1886.17684249 -1226.91015625 1878.89453125 C-1230.74794367 1875.94831464 -1234.61471803 1873.04583477 -1238.50317383 1870.16699219 C-1245.23627213 1865.17829239 -1251.70828075 1859.97803651 -1258.05859375 1854.51171875 C-1260.64504523 1852.30310215 -1263.26731668 1850.16825432 -1265.9375 1848.0625 C-1271.82854468 1843.3896358 -1277.49958634 1838.46874796 -1283.18994141 1833.55566406 C-1284.94605242 1832.04636553 -1286.71125915 1830.54859789 -1288.48046875 1829.0546875 C-1296.03614433 1822.66117727 -1303.32835607 1816.03790463 -1310.53125 1809.25 C-1313.39488059 1806.55445207 -1316.30636546 1803.92078377 -1319.25 1801.3125 C-1322.83209578 1798.11717536 -1326.25228141 1794.78868045 -1329.625 1791.375 C-1332.62602962 1788.34043932 -1335.62125872 1785.38657873 -1338.875 1782.625 C-1346.85670688 1775.79529205 -1354.27507801 1768.16540795 -1361.0625 1760.15625 C-1363.76032016 1757.15383724 -1366.63062416 1754.33760114 -1369.5 1751.5 C-1373.56092352 1747.47958302 -1377.50293179 1743.43775858 -1381.203125 1739.078125 C-1383.07006932 1736.9189633 -1384.99932651 1734.82420486 -1386.94116211 1732.73242188 C-1391.75839867 1727.54197866 -1396.32139604 1722.22395253 -1400.76171875 1716.703125 C-1403.04815705 1713.94184175 -1405.43608218 1711.31461778 -1407.875 1708.6875 C-1412.03630199 1704.16128384 -1415.85816663 1699.46842642 -1419.61499023 1694.60961914 C-1423.29183951 1689.86416357 -1427.09641316 1685.23808026 -1430.9375 1680.625 C-1437.0209733 1673.28720231 -1442.8073039 1665.77185465 -1448.45507812 1658.09521484 C-1450.0606144 1655.91779507 -1451.67782767 1653.74941987 -1453.296875 1651.58203125 C-1491.78037545 1599.92459303 -1525.10342342 1544.66339128 -1554.31884766 1487.29492188 C-1555.80966193 1484.37304715 -1557.31442557 1481.45896799 -1558.82421875 1478.546875 C-1567.30417685 1462.05301128 -1574.6921187 1445.05451536 -1582.10095215 1428.06048584 C-1582.91943688 1426.18463887 -1583.74127432 1424.31025568 -1584.56347656 1422.43603516 C-1604.7288474 1376.35669951 -1620.9512453 1328.54943391 -1634 1280 C-1634.31294006 1278.8375174 -1634.31294006 1278.8375174 -1634.63220215 1277.65155029 C-1650.33727756 1219.10549394 -1658.7083409 1159.58691648 -1665.60357666 1099.45452881 C-1665.98667892 1096.11608314 -1666.37270581 1092.77798688 -1666.75927734 1089.43994141 C-1667.34810939 1084.3415044 -1667.92653337 1079.24198953 -1668.49603271 1074.14135742 C-1668.69977139 1072.3201655 -1668.90539187 1070.49918261 -1669.11334229 1068.6784668 C-1672.45710651 1039.25221367 -1673.37738902 1009.97982914 -1673.31785583 980.39472198 C-1673.31241979 977.58352016 -1673.31004914 974.77232675 -1673.3079834 971.96112061 C-1673.27568801 943.73459256 -1672.74348164 915.65060866 -1670.22460938 887.51916504 C-1670.00162668 885.01824448 -1669.78880802 882.51663231 -1669.578125 880.01464844 C-1661.4900347 785.21321457 -1640.38279957 691.65062959 -1527.52050781 423.64697266 C-1526.01571416 421.02735595 -1524.53216109 418.39682591 -1523.0546875 415.76171875 C-1515.45321618 402.24207675 -1507.3283203 389.08265787 -1499 376 C-1498.51176758 375.23236328 -1498.02353516 374.46472656 -1497.52050781 373.67382812 C-1494.38506257 368.75734163 -1491.20219441 363.87321294 -1488 359 C-1487.39542969 358.07687012 -1486.79085938 357.15374023 -1486.16796875 356.20263672 C-1478.66032354 344.75792016 -1471.0603085 333.46426054 -1462.734375 322.59765625 C-1460.0271079 319.06274437 -1457.44209215 315.44992543 -1454.875 311.8125 C-1450.09584973 305.06535274 -1445.0910151 298.51378928 -1440 292 C-1439.57106445 291.44876465 -1439.14212891 290.8975293 -1438.70019531 290.32958984 C-1428.21853489 276.86038425 -1417.47937416 263.60246638 -1406.39013672 250.62841797 C-1404.93465989 248.92346004 -1403.48473947 247.2138767 -1402.03515625 245.50390625 C-1396.3019919 238.75791983 -1390.4494858 232.15072912 -1384.4375 225.65234375 C-1382.48256122 223.52509466 -1380.57117955 221.37727748 -1378.6875 219.1875 C-1366.8015965 205.54637185 -1353.95836998 192.79873892 -1341.15722656 180.02685547 C-1338.612503 177.48788246 -1336.07237254 174.94436856 -1333.53349495 172.39955139 C-1331.54485691 170.40727743 -1329.55381608 168.41741842 -1327.56206894 166.42825317 C-1326.17611543 165.04327254 -1324.79214208 163.65631124 -1323.40823364 162.26928711 C-1318.967027 157.84445131 -1314.47505685 153.54755074 -1309.71000671 149.47189331 C-1306.95987221 147.10470694 -1304.3334203 144.607169 -1301.6875 142.125 C-1296.83996873 137.61012862 -1291.84690555 133.35968939 -1286.6796875 129.2109375 C-1283.86746685 126.8906505 -1281.18202737 124.46928866 -1278.5 122 C-1273.17019892 117.10620521 -1267.63164422 112.53979483 -1262 108 C-1260.76994984 106.99065906 -1259.5408379 105.98017402 -1258.3125 104.96875 C-1250.46258211 98.5192139 -1242.49122151 92.28698201 -1234.33203125 86.234375 C-1231.16058727 83.87814955 -1228.01819031 81.48721837 -1224.88671875 79.078125 C-1215.83696034 72.11670883 -1206.7559093 65.29411206 -1197.2890625 58.91015625 C-1193.9870423 56.68323079 -1190.71990414 54.41056488 -1187.4609375 52.12109375 C-1177.12879312 44.86417529 -1166.75971109 37.79641957 -1155.98095703 31.22167969 C-1153.88891146 29.93149038 -1151.81607959 28.61433841 -1149.74609375 27.2890625 C-1119.37698298 7.85150977 -1087.94547807 -9.74355028 -1055.81243896 -26.07751465 C-1054.02553964 -26.98700097 -1052.2405379 -27.90021246 -1050.45556641 -28.81347656 C-1011.55881945 -48.69343293 -971.21566179 -65.80686633 -930.00415039 -80.29418945 C-927.89533318 -81.03686098 -925.78841164 -81.78474808 -923.68164062 -82.53320312 C-887.67402489 -95.29943297 -851.09694344 -105.89911434 -814 -115 C-812.75347656 -115.30744141 -811.50695312 -115.61488281 -810.22265625 -115.93164062 C-725.51349671 -136.67950841 -639.48564969 -145.48690145 0 0 Z " fill="#0E0E0E" transform="translate(1673,145)"/>
<path d="M0 0 C0.76683105 0.24987671 1.53366211 0.49975342 2.32373047 0.75720215 C78.59178131 25.68089246 151.84593485 59.38246624 221 100 C221.94391602 100.55349121 222.88783203 101.10698242 223.86035156 101.67724609 C240.77375435 111.64633228 257.04351981 122.56263592 273.32006836 133.52685547 C275.65940307 135.1015974 278.00317735 136.66914882 280.35375977 138.22705078 C286.1741735 142.08470822 291.91975896 146.01188566 297.5625 150.125 C298.69123535 150.94460205 298.69123535 150.94460205 299.84277344 151.78076172 C302.23085426 153.51732359 304.61570569 155.2582438 307 157 C307.8048584 157.58652344 308.6097168 158.17304688 309.43896484 158.77734375 C324.72579998 169.92609086 339.54069146 181.55524796 354.19140625 193.5234375 C355.7923548 194.83047541 357.39597976 196.13423356 359 197.4375 C368.77210331 205.39153758 378.41004358 213.48110238 387.73828125 221.953125 C389.80673875 223.8250969 391.89560914 225.6686339 394 227.5 C397.75392409 230.77438089 401.47188562 234.08623152 405.16357422 237.43066406 C406.93974297 239.03958125 408.71981705 240.64420926 410.50561523 242.24243164 C421.3935389 252.11942188 431.72310581 262.57072943 442.10400391 272.97363281 C444.84033945 275.71570062 447.58119182 278.45320295 450.32336998 281.18942642 C452.46319522 283.32561662 454.60060685 285.46420911 456.73732376 287.603508 C457.74675088 288.61359439 458.75689955 289.6229603 459.76783371 290.63153839 C464.86703255 295.72144054 469.87408323 300.83441191 474.5536499 306.3155365 C476.90965043 309.05940668 479.40109049 311.67538407 481.875 314.3125 C486.39309339 319.16349069 490.64698207 324.15959276 494.796875 329.33203125 C497.06927818 332.08389538 499.44694831 334.69738143 501.875 337.3125 C506.11797039 341.92271357 509.99876663 346.71926958 513.82592773 351.67163086 C516.92510004 355.67040516 520.1336234 359.5443755 523.4375 363.375 C529.11705247 369.99540558 534.30918378 376.9457012 539.48828125 383.96044922 C541.45966445 386.62016099 543.45507808 389.26133476 545.45043945 391.90307617 C557.51739706 407.90452366 568.98375151 424.22628702 580.00341797 440.96826172 C581.91415331 443.86964487 583.83351334 446.76516015 585.75390625 449.66015625 C600.43332954 471.8793945 614.14869429 494.67651326 627 518 C627.52513184 518.95261719 628.05026367 519.90523437 628.59130859 520.88671875 C672.17483305 600.19205691 707.17281488 683.7307275 760.60357666 948.55194092 C760.98592534 951.8775797 761.37205965 955.20275707 761.75927734 958.52783203 C762.34872003 963.60032034 762.9270546 968.67395539 763.49603271 973.7487793 C763.69933542 975.55635016 763.90491212 977.3636675 764.11334229 979.1706543 C767.4635294 1008.36524296 768.38244861 1037.54102238 768.31785583 1066.89991379 C768.31240206 1069.48390601 768.31004366 1072.06788902 768.3079834 1074.65188599 C768.27259734 1103.19309829 767.42814403 1131.55046577 765 1160 C764.85906884 1161.71367928 764.71843948 1163.4273834 764.578125 1165.14111328 C757.1401806 1254.57178758 737.80704504 1342.46111777 670 1529 C669.51595703 1530.0823291 669.03191406 1531.1646582 668.53320312 1532.27978516 C654.90481107 1562.62353725 640.30525191 1592.89812461 623.41943359 1621.57128906 C621.95766682 1624.07243387 620.53132179 1626.59101882 619.11328125 1629.1171875 C607.19221112 1650.33309201 594.24099069 1670.81950776 580.75 1691.0625 C579.93496002 1692.28655548 579.93496002 1692.28655548 579.10345459 1693.53533936 C569.36439587 1708.14190391 559.37592399 1722.57020911 548.9375 1736.6875 C548.35444092 1737.47729248 547.77138184 1738.26708496 547.1706543 1739.08081055 C542.34241385 1745.59296826 537.37754332 1751.9859006 532.32666016 1758.32617188 C530.96165981 1760.04837327 529.61004984 1761.78034824 528.26171875 1763.515625 C522.86293186 1770.45624051 517.31996813 1777.2396878 511.609375 1783.92578125 C509.23730965 1786.70733088 506.92507288 1789.53348661 504.625 1792.375 C496.30144128 1802.58622293 487.59652105 1812.46894991 478.6328125 1822.12109375 C476.63875084 1824.30154396 474.68622348 1826.50037311 472.74975586 1828.73095703 C461.01751611 1842.15271182 448.40519787 1854.75474984 435.79077148 1867.33959961 C433.03837405 1870.08657845 430.29144104 1872.83894203 427.54492188 1875.59179688 C425.7711543 1877.36490448 423.997077 1879.13770231 422.22265625 1880.91015625 C421.4141774 1881.72065933 420.60569855 1882.53116241 419.77272034 1883.3662262 C415.56383585 1887.55792158 411.28455616 1891.60193365 406.77366638 1895.46788025 C403.77156944 1898.06113683 400.89348108 1900.78695234 398 1903.5 C393.07477245 1908.09207332 388.11526183 1912.61942568 383 1917 C381.93082507 1917.92298655 380.86183204 1918.84618382 379.79296875 1919.76953125 C372.61648258 1925.95779294 365.36202134 1932.03288797 358 1938 C356.73922178 1939.03080794 355.47883109 1940.06208999 354.21875 1941.09375 C346.54795759 1947.36556024 338.82066707 1953.53438998 330.92919922 1959.52734375 C328.6754232 1961.24776604 326.43362296 1962.98329085 324.19140625 1964.71875 C314.10607605 1972.49904996 303.88579081 1979.95640768 293.3203125 1987.0703125 C289.63260802 1989.55498159 286.02938186 1992.12889702 282.4375 1994.75 C271.59585633 2002.60016528 260.24536056 2009.74640029 249 2017 C248.11554199 2017.57073242 247.23108398 2018.14146484 246.31982422 2018.72949219 C233.7424242 2026.82015868 220.92584479 2034.48077201 208 2042 C207.15244141 2042.49467773 206.30488281 2042.98935547 205.43164062 2043.49902344 C167.20000144 2065.76858136 127.66039843 2085.57771447 87 2103 C86.30555786 2103.29865967 85.61111572 2103.59731934 84.89562988 2103.9050293 C4.34856183 2138.52492943 -80.79119987 2163.01223724 -306.6875 2191.5625 C-307.44090668 2191.58334656 -308.19431335 2191.60419312 -308.97055054 2191.62567139 C-397.69553688 2194.01086914 -486.55042887 2188.33576961 -702.74200439 2136.74420166 C-704.95854105 2136.01366425 -707.17624526 2135.28675708 -709.39404297 2134.56005859 C-745.392001 2122.7276841 -780.54601731 2108.75759773 -815 2093 C-815.6589325 2092.69922546 -816.31786499 2092.39845093 -816.99676514 2092.08856201 C-841.13876647 2081.06217785 -864.95242064 2069.47397626 -888.15771484 2056.57714844 C-891.10672396 2054.94078021 -894.06288914 2053.31784267 -897.01953125 2051.6953125 C-912.31083775 2043.26363498 -927.21116868 2034.28123436 -942 2025 C-942.96566895 2024.39655762 -943.93133789 2023.79311523 -944.92626953 2023.17138672 C-958.85561567 2014.45682601 -972.5022051 2005.3681062 -986 1996 C-986.76151367 1995.47164551 -987.52302734 1994.94329102 -988.30761719 1994.39892578 C-1010.58894181 1978.89562593 -1032.29436497 1962.6033294 -1053.28710938 1945.39697266 C-1055.57033179 1943.53485769 -1057.87780718 1941.7041277 -1060.1875 1939.875 C-1064.5721511 1936.38052136 -1068.84934313 1932.76822997 -1073.11621094 1929.13183594 C-1076.51410682 1926.24013686 -1079.95556435 1923.41566901 -1083.4375 1920.625 C-1088.45175024 1916.54908898 -1093.18042287 1912.21147206 -1097.87866211 1907.77978516 C-1100.79377981 1905.03186872 -1103.73960469 1902.33771609 -1106.76708984 1899.71362305 C-1120.18184924 1888.00002704 -1132.76730382 1875.39261438 -1145.33959961 1862.79077148 C-1148.08657845 1860.03837405 -1150.83894203 1857.29144104 -1153.59179688 1854.54492188 C-1155.36490448 1852.7711543 -1157.13770231 1850.997077 -1158.91015625 1849.22265625 C-1160.12591087 1848.00993797 -1160.12591087 1848.00993797 -1161.3662262 1846.77272034 C-1165.56090902 1842.56083616 -1169.60701685 1838.27831903 -1173.4747467 1833.7633667 C-1176.01900342 1830.82191587 -1178.70667758 1828.01592993 -1181.375 1825.1875 C-1186.07829762 1820.1665666 -1190.5218434 1815.01660138 -1194.82421875 1809.64453125 C-1197.130317 1806.84160752 -1199.54151531 1804.16996725 -1202 1801.5 C-1206.89379479 1796.17019892 -1211.46020517 1790.63164422 -1216 1785 C-1217.00934094 1783.76994984 -1218.01982598 1782.5408379 -1219.03125 1781.3125 C-1226.053054 1772.76628807 -1232.80044222 1764.05974553 -1239.3828125 1755.171875 C-1241.1077492 1752.85529334 -1242.84894851 1750.55165303 -1244.59375 1748.25 C-1282.25124359 1698.52072163 -1314.93932459 1645.14651433 -1344 1590 C-1344.59699707 1588.8744873 -1345.19399414 1587.74897461 -1345.80908203 1586.58935547 C-1354.18543126 1570.78565645 -1362.01700485 1554.79564074 -1369.40429688 1538.50634766 C-1370.96667303 1535.07323164 -1372.55164079 1531.65133607 -1374.140625 1528.23046875 C-1391.52093198 1490.51539062 -1406.08825254 1451.22030172 -1418.1875 1411.5 C-1418.55029053 1410.32026611 -1418.91308105 1409.14053223 -1419.28686523 1407.92504883 C-1421.53398784 1400.3450315 -1422.99570167 1392.84047547 -1424 1385 C-1406.24223016 1385.59877137 -1388.51810536 1386.57272288 -1370.78955078 1387.72949219 C-1367.2608297 1387.95961261 -1363.73172192 1388.1831295 -1360.20247841 1388.40507507 C-1356.7935962 1388.62047651 -1353.38510465 1388.84178252 -1349.9765625 1389.0625 C-1348.7142984 1389.14169678 -1347.4520343 1389.22089355 -1346.15151978 1389.30249023 C-1344.41096817 1389.41765991 -1344.41096817 1389.41765991 -1342.63525391 1389.53515625 C-1341.61589752 1389.600979 -1340.59654114 1389.66680176 -1339.54629517 1389.73461914 C-1337 1390 -1337 1390 -1334 1391 C-1332.83743283 1393.45347715 -1331.87233858 1395.81838083 -1330.953125 1398.36328125 C-1330.66548782 1399.12926132 -1330.37785065 1399.89524139 -1330.08149719 1400.68443298 C-1329.45711881 1402.34873068 -1328.83755357 1404.01484008 -1328.22219849 1405.68249512 C-1326.56530584 1410.16474417 -1324.86539393 1414.63063263 -1323.16796875 1419.09765625 C-1322.82068222 1420.01352509 -1322.47339569 1420.92939392 -1322.11558533 1421.87301636 C-1301.526156 1475.99245339 -1276.38180203 1529.06237367 -1247.56445312 1579.26513672 C-1246.0568723 1581.90057998 -1244.56494353 1584.54420534 -1243.078125 1587.19140625 C-1217.93457074 1631.84560869 -1188.99122291 1674.96002992 -1157 1715 C-1155.94039062 1716.33417969 -1155.94039062 1716.33417969 -1154.859375 1717.6953125 C-1146.89062978 1727.70330354 -1138.74452972 1737.55649331 -1130.45019531 1747.29541016 C-1128.98196961 1749.02119329 -1127.51826467 1750.75074272 -1126.0546875 1752.48046875 C-1119.79622874 1759.85475291 -1113.37266068 1767.03680116 -1106.76049805 1774.09594727 C-1105.45810941 1775.5045354 -1104.17002895 1776.92638328 -1102.88989258 1778.35522461 C-1094.41934555 1787.755819 -1085.47632224 1796.6752208 -1076.51977539 1805.6105957 C-1073.80433986 1808.32064396 -1071.09432636 1811.03603249 -1068.38476562 1813.75195312 C-1066.63834158 1815.49771676 -1064.89160756 1817.24317037 -1063.14453125 1818.98828125 C-1062.34537796 1819.78945877 -1061.54622467 1820.59063629 -1060.72285461 1821.41609192 C-1056.51437715 1825.60722215 -1052.23160431 1829.64678818 -1047.72338867 1833.51472473 C-1045.14749434 1835.73471852 -1042.67578208 1838.05724354 -1040.1875 1840.375 C-1035.48624815 1844.72324662 -1030.62750666 1848.81271219 -1025.63671875 1852.828125 C-1023.07579972 1854.93756349 -1020.62876545 1857.12887648 -1018.1875 1859.375 C-1013.22282442 1863.89332462 -1007.99912603 1868.00561936 -1002.69921875 1872.1171875 C-999.59963821 1874.52241609 -996.53824397 1876.97134597 -993.48583984 1879.43603516 C-985.14339207 1886.16734634 -976.62858768 1892.6407045 -968 1899 C-967.31631348 1899.50611816 -966.63262695 1900.01223633 -965.92822266 1900.53369141 C-952.91929427 1910.14266227 -939.50998432 1919.11419016 -926 1928 C-925.24928223 1928.49709473 -924.49856445 1928.99418945 -923.72509766 1929.50634766 C-853.71380816 1975.86359653 -777.16385327 2012.52167805 -342.34140778 2104.31805801 C-339.63993775 2104.31240039 -336.93847404 2104.30959077 -334.23699951 2104.30697632 C-307.05922223 2104.26877627 -280.05936668 2103.73325622 -253 2101 C-251.17969084 2100.82125502 -249.35937825 2100.64254504 -247.5390625 2100.46386719 C-158.90139171 2091.64012474 -71.71819671 2071.40760479 151 1974 C152.08200684 1973.39188477 153.16401367 1972.78376953 154.27880859 1972.15722656 C176.26574235 1959.77204504 197.93465467 1946.90556935 219 1933 C219.63309082 1932.58298828 220.26618164 1932.16597656 220.91845703 1931.73632812 C256.11615147 1908.51870823 290.05492011 1883.4195201 322.16870117 1856.0793457 C325.52758859 1853.22491203 328.93214165 1850.44076506 332.375 1847.6875 C337.64826087 1843.402493 342.59381939 1838.80695987 347.52294922 1834.13549805 C351.28636598 1830.57152503 355.12549171 1827.12095905 359.03686523 1823.72021484 C370.88292462 1813.33999666 381.98267198 1802.12125778 393.125 1791 C394.07649429 1790.052388 394.07649429 1790.052388 395.04721069 1789.08563232 C404.01090103 1780.16808684 404.01090103 1780.16808684 412.46923828 1770.77587891 C415.31856749 1767.47029347 418.36715183 1764.34817727 421.375 1761.1875 C426.45735538 1755.810985 431.28394154 1750.3612441 435.89453125 1744.57421875 C438.17200846 1741.78969652 440.56312008 1739.14586197 443 1736.5 C447.89312765 1731.1702548 452.47673321 1725.64491965 457 1720 C457.95948265 1718.80977266 458.9191264 1717.61967519 459.87890625 1716.4296875 C470.69595456 1702.99201409 481.09230389 1689.27969044 491.27246094 1675.35400391 C492.8299242 1673.23175111 494.40060032 1671.1202438 495.9765625 1669.01171875 C523.94185231 1631.29975083 548.02169132 1590.41710691 570 1549 C570.82467773 1547.4533667 570.82467773 1547.4533667 571.66601562 1545.87548828 C613.24960226 1467.68443625 643.17423214 1383.98370248 685.73571777 1157.78265381 C685.98445355 1155.16369008 686.24355267 1152.5459545 686.50488281 1149.92822266 C692.05688546 1093.15081944 692.0340814 1033.27510205 686.25323486 976.51977539 C685.98382587 973.8390617 685.73055925 971.15714631 685.47998047 968.47460938 C676.46745099 872.68212507 654.56726573 778.06430643 583 606 C582.63777344 605.26040039 582.27554688 604.52080078 581.90234375 603.75878906 C580.04043958 599.95771546 578.14699773 596.17415901 576.22460938 592.40332031 C575.29082803 590.5707558 574.36046043 588.7364514 573.43164062 586.90136719 C565.33169138 570.92172259 556.89514914 555.24738811 547.70410156 539.85986328 C545.98519435 536.97515281 544.28323074 534.08106708 542.5859375 531.18359375 C521.47839827 495.17860137 497.67673607 460.90089815 472 428 C471.5555957 427.42942871 471.11119141 426.85885742 470.65332031 426.27099609 C462.3448958 415.61074673 453.84314635 405.12924128 445.08374023 394.83569336 C442.19106549 391.43055871 439.36185533 387.98274225 436.5625 384.5 C432.1854888 379.11714063 427.50445873 374.05728658 422.7734375 368.98828125 C420.63645686 366.6964159 418.54776652 364.37241243 416.5 362 C408.83152926 353.1589233 400.78203412 344.71791339 392.4609375 336.4921875 C389.73196945 333.72856589 387.19806393 330.84565791 384.671875 327.8984375 C380.51940759 323.18325254 376.02301926 318.83127734 371.25 314.75 C367.65479982 311.66435575 364.32689843 308.36778595 361 305 C357.15848325 301.11626224 353.27627194 297.3744519 349.11328125 293.83203125 C346.94323672 291.95079117 344.83473649 290.01012787 342.72998047 288.05639648 C337.51796317 283.21973023 332.17948586 278.63139091 326.63671875 274.171875 C324.07579972 272.06243651 321.62876545 269.87112352 319.1875 267.625 C314.81299174 263.64316413 310.25470925 259.98257917 305.58349609 256.36108398 C301.76676332 253.39947456 298.00768748 250.38028042 294.2800293 247.30737305 C287.83669526 242.0025559 281.2829518 236.88726905 274.5625 231.9375 C273.8610083 231.42082764 273.1595166 230.90415527 272.43676758 230.37182617 C258.70242639 220.33950514 244.71926111 210.67462677 230.5625 201.25 C229.78685699 200.73319672 229.01121399 200.21639343 228.21206665 199.68392944 C206.98719355 185.56013758 185.34355765 172.2906378 163 160 C162.01692871 159.45698242 161.03385742 158.91396484 160.02099609 158.35449219 C132.01077281 142.92570371 103.41291235 128.56479963 74 116 C73.29182129 115.69705017 72.58364258 115.39410034 71.85400391 115.08197021 C-13.43659142 78.66998577 -103.50015652 53.12030681 -303 28 C-304.10472656 27.94215332 -305.20945312 27.88430664 -306.34765625 27.82470703 C-399.99281078 23.12291664 -495.24915207 32.2162055 -594.87664795 57.44720459 C-596.97445663 57.99335002 -599.0733339 58.53522793 -601.17236328 59.07666016 C-685.74615448 80.97711993 -768.6227557 114.17383904 -856.26513672 163.43554688 C-858.90057998 164.9431277 -861.54420534 166.43505647 -864.19140625 167.921875 C-901.95412058 189.18502168 -938.54977316 213.20782057 -973.01708984 239.48925781 C-975.07633975 241.05816183 -977.14139911 242.61919847 -979.20703125 244.1796875 C-988.37433346 251.12486656 -997.36215091 258.26385462 -1006.24853516 265.56445312 C-1007.79975281 266.83587211 -1009.35832934 268.0983011 -1010.91796875 269.359375 C-1021.69300169 278.08126281 -1032.14025376 287.19899777 -1042.33984375 296.5859375 C-1044.4408113 298.49254241 -1046.56168108 300.36314821 -1048.70361328 302.22290039 C-1061.07000719 313.03571929 -1072.75443863 324.59059109 -1084.34887695 336.21850586 C-1086.58885186 338.4639158 -1088.83422696 340.70382839 -1091.08007812 342.94335938 C-1092.53417542 344.39811646 -1093.98796303 345.85318318 -1095.44140625 347.30859375 C-1096.09879288 347.96395615 -1096.7561795 348.61931854 -1097.43348694 349.29454041 C-1101.25220718 353.13241192 -1104.89107018 357.07727232 -1108.4209137 361.18280029 C-1110.9885407 364.13760461 -1113.68921996 366.96554027 -1116.375 369.8125 C-1121.10196376 374.85910944 -1125.57509143 380.03334148 -1129.8984375 385.43359375 C-1131.98001427 387.97559363 -1134.1503838 390.39529335 -1136.375 392.8125 C-1140.35755281 397.1877959 -1144.0181807 401.74729266 -1147.64111328 406.41870117 C-1150.58775546 410.21512215 -1153.58793949 413.95809437 -1156.64160156 417.66894531 C-1164.12038822 426.76427602 -1171.22513909 436.11478419 -1178.21826172 445.58740234 C-1179.33382243 447.0979492 -1180.45219306 448.60642945 -1181.57470703 450.11181641 C-1215.86786688 496.12414447 -1245.10137928 546.12520359 -1271.08721924 597.21020508 C-1271.97588532 598.95271555 -1272.87043089 600.69222359 -1273.76513672 602.43164062 C-1283.97473326 622.28059389 -1293.16361198 642.50914733 -1302 663 C-1302.32224548 663.7463269 -1302.64449097 664.49265381 -1302.97650146 665.26159668 C-1313.16515995 688.89248892 -1322.09373275 712.82584603 -1331 737 C-1360.7 737 -1390.4 737 -1421 737 C-1417.49772147 727.0768775 -1413.99901925 717.1729168 -1410.3125 707.3203125 C-1409.89283463 706.19599823 -1409.47316925 705.07168396 -1409.04078674 703.91329956 C-1407.69652474 700.31619434 -1406.34894623 696.72035109 -1405 693.125 C-1404.76883862 692.50874756 -1404.53767723 691.89249512 -1404.29951096 691.25756836 C-1388.29607881 648.60456063 -1371.16951745 606.80555071 -1350.96673584 565.9588623 C-1350.0203255 564.04118484 -1349.07875965 562.1212179 -1348.13916016 560.20019531 C-1340.75836279 545.11139385 -1333.00148451 530.32539665 -1324.59570312 515.78125 C-1322.99483124 512.99099105 -1321.42278002 510.1864033 -1319.859375 507.375 C-1290.81675032 455.19984836 -1256.25606271 405.89458912 -1218.42382812 359.73974609 C-1217.14773696 358.18051673 -1215.87812619 356.615989 -1214.609375 355.05078125 C-1209.5421084 348.80783589 -1204.34370075 342.68680617 -1199.09375 336.59765625 C-1197.08054875 334.2621662 -1195.08071839 331.91643598 -1193.09375 329.55859375 C-1186.00675011 321.17055831 -1178.59109725 313.14256968 -1171.03393555 305.17749023 C-1169.62897989 303.67337314 -1168.2407491 302.15352083 -1166.86645508 300.62133789 C-1157.87693728 290.62271013 -1148.32624843 281.17388341 -1138.81079102 271.68041992 C-1136.30298558 269.17834217 -1133.79974192 266.67175589 -1131.29778004 264.16383648 C-1129.34259292 262.20501052 -1127.38499933 260.24860338 -1125.4267025 258.29288673 C-1124.0606987 256.92785685 -1122.69667697 255.56084437 -1121.3327179 254.19377136 C-1116.93210997 249.80958313 -1112.48034915 245.55428943 -1107.75671387 241.51860046 C-1104.63892885 238.82341495 -1101.67802518 235.95955314 -1098.6875 233.125 C-1093.49241316 228.2347467 -1088.18647242 223.59570282 -1082.609375 219.140625 C-1079.81568484 216.84879535 -1077.15791222 214.44768188 -1074.5 212 C-1069.17025607 207.10625769 -1063.63229749 202.53892684 -1058 198 C-1056.78172437 197.00231195 -1055.56432693 196.00355089 -1054.34765625 195.00390625 C-1045.40604276 187.6702879 -1036.32058595 180.5530415 -1027.09375 173.58203125 C-1025.04941626 172.03733878 -1023.00898474 170.48760022 -1020.96875 168.9375 C-1012.20489639 162.30001136 -1003.29536238 155.8944382 -994.28320312 149.59912109 C-991.87622718 147.91331138 -989.4767359 146.21721891 -987.078125 144.51953125 C-976.54607323 137.07987781 -965.88846485 129.90618868 -955 123 C-953.41533798 121.98962505 -951.83070337 120.97920712 -950.24609375 119.96875 C-940.5868841 113.82427386 -930.86046857 107.81548524 -921 102 C-919.71512695 101.23864746 -919.71512695 101.23864746 -918.40429688 100.46191406 C-903.45719178 91.61450873 -888.34954768 83.12893106 -873 75 C-871.44104004 74.17314697 -871.44104004 74.17314697 -869.85058594 73.32958984 C-787.68599438 29.89185899 -700.81750017 -2.93933234 -380.625 -55.5625 C-379.53616013 -55.59376984 -379.53616013 -55.59376984 -378.42532349 -55.62567139 C-289.00280812 -58.1441366 -199.54694104 -48.67668662 0 0 Z " fill="#0E0E0E" transform="translate(3678,56)"/>
<path d="M0 0 C29.37 0 58.74 0 89 0 C90.79164473 4.77771927 92.45826307 9.28886726 93.85913086 14.1472168 C94.36376106 15.88845573 94.36376106 15.88845573 94.87858582 17.66487122 C95.23705093 18.9137059 95.59551605 20.16254059 95.96484375 21.44921875 C96.35362443 22.7949375 96.74269593 24.14057226 97.1320343 25.48612976 C97.96643857 28.37204462 98.7988792 31.25851574 99.62976074 34.14544678 C100.95737499 38.75819666 102.28938508 43.36967006 103.62207031 47.98095703 C105.24993739 53.61464611 106.87680653 59.24862139 108.50234032 64.88298416 C112.65645212 79.28140816 116.82775395 93.6748378 121.00112915 108.06768799 C122.03929043 111.64807833 123.07709239 115.2285727 124.11476421 118.80910492 C132.05641608 146.21191841 140.02300332 173.60745471 148 201 C150.17292648 197.74061028 150.97335105 195.08666643 152.04589844 191.32348633 C152.24245561 190.63941208 152.43901278 189.95533783 152.64152622 189.25053406 C153.30243309 186.94575341 153.9558154 184.63890518 154.609375 182.33203125 C155.08473316 180.66918744 155.56059191 179.00648666 156.03691101 177.34391785 C157.06906474 173.73768557 158.09799849 170.13055563 159.1244812 166.52270508 C160.76145988 160.76950479 162.40545015 155.01832467 164.05102539 149.26757812 C164.62190529 147.27237019 165.19278233 145.27716144 165.76365662 143.2819519 C166.05156004 142.27577694 166.33946346 141.26960197 166.63609123 140.23293686 C167.53130717 137.10336397 168.42582801 133.97359307 169.32020569 130.84378052 C176.31269492 106.37957017 183.37214267 81.9346922 190.43013 57.48931503 C193.03061903 48.48177512 195.6297153 39.47383318 198.22907448 30.46596718 C199.09859709 27.45295397 199.96830197 24.43999343 200.83805847 21.42704773 C201.10547474 20.5005627 201.37289101 19.57407766 201.6484108 18.61951733 C202.14059819 16.91429645 202.63285338 15.20909513 203.12519455 13.50391865 C203.34418537 12.74514014 203.56317619 11.98636164 203.7888031 11.20458984 C203.97571937 10.55710785 204.16263563 9.90962585 204.35521603 9.24252319 C205.24071618 6.16280238 206.11965741 3.08119907 207 0 C236.37 0 265.74 0 296 0 C296 92.4 296 184.8 296 280 C277.52 280 259.04 280 240 280 C239.67 209.05 239.34 138.1 239 65 C226.83237624 105.15315842 214.67039485 145.30751757 202.56689453 185.47998047 C202.3652878 186.14912413 202.16368107 186.81826778 201.95596504 187.50768852 C200.08411078 193.72058183 198.2124877 199.93354479 196.34088516 206.14651394 C194.32219887 212.84772272 192.30330061 219.54886763 190.2843132 226.24998569 C188.82481312 231.09426926 187.36571151 235.93867261 185.90693951 240.78317547 C184.9976073 243.80276049 184.08795978 246.82225046 183.17823982 249.84171867 C182.75837801 251.23553345 182.33864732 252.62938774 181.91906548 254.02328682 C181.33710976 255.95655084 180.75462136 257.88965448 180.17211914 259.82275391 C179.84748184 260.90070221 179.52284454 261.97865051 179.18836975 263.08926392 C177.47405558 268.73079954 175.73400451 274.36448533 174 280 C155.85 280 137.7 280 119 280 C109.81813702 250.15894533 109.81813702 250.15894533 105.84765625 236.328125 C105.38944946 234.73902051 104.93101107 233.14998278 104.47236633 231.56100464 C103.50228415 228.19876245 102.53350398 224.83614938 101.56585693 221.47320557 C99.22095519 213.32423772 96.86890606 205.17733119 94.51741791 197.03026199 C93.97060543 195.13563065 93.42387834 193.24097467 92.87723541 191.3462944 C88.62826258 176.6194025 84.36184873 161.89764445 80.08203125 147.1796875 C79.79917078 146.20694885 79.51631031 145.23421021 79.22487831 144.23199463 C76.47753084 134.78500847 73.72833693 125.33855998 70.97851467 115.89229393 C69.96151101 112.39832402 68.94486987 108.90424869 67.92827415 105.41016006 C67.2454309 103.06383563 66.5619907 100.71768574 65.87849426 98.37155151 C62.54765003 86.92475227 59.27522774 75.46329708 56 64 C55.67 135.28 55.34 206.56 55 280 C36.85 280 18.7 280 0 280 C0 187.6 0 95.2 0 0 Z " fill="#D48B53" transform="translate(3259,969)"/>
<path d="M0 0 C126.64945103 0 126.64945103 0 139.1875 2.6875 C140.01717285 2.86192627 140.8468457 3.03635254 141.70166016 3.21606445 C162.68608906 7.89161334 180.50176964 18.49419748 192.1796875 36.8125 C204.01490599 57.53683109 204.80825714 84.19384989 199.03515625 106.92578125 C195.16450408 121.03558959 188.47882129 132.67862344 178 143 C177.21753906 143.78117187 176.43507813 144.56234375 175.62890625 145.3671875 C169.66622846 151.03411647 163.24022871 155.13108054 156 159 C157.49763455 163.99065262 159.60666429 168.41098165 162 173.01171875 C162.58766899 174.15361916 162.58766899 174.15361916 163.18721008 175.31858826 C164.45391399 177.77709953 165.72680163 180.2323467 167 182.6875 C167.87683732 184.38575468 168.75338271 186.08416012 169.62963867 187.78271484 C174.1906725 196.61563427 178.77116599 205.43832034 183.42382812 214.22338867 C186.991379 220.96046428 190.49570674 227.72984514 194 234.5 C198.1480128 242.50984011 202.30168519 250.51638588 206.5 258.5 C206.90009277 259.26111084 207.30018555 260.02222168 207.71240234 260.80639648 C210.41656974 265.93402384 213.18830177 271.01851226 216.0390625 276.06640625 C217 278 217 278 217 280 C195.55 280 174.1 280 152 280 C146.22097966 269.01986135 140.4486072 258.04459114 134.78112793 247.0078125 C132.96037809 243.46244806 131.13629675 239.91879775 129.3125 236.375 C128.94711121 235.6648877 128.58172241 234.95477539 128.20526123 234.22314453 C124.73237628 227.47575864 121.24401098 220.73647294 117.75 214 C117.19199707 212.92306885 116.63399414 211.8461377 116.05908203 210.73657227 C113.44649486 205.69822873 110.82674491 200.66385653 108.18737793 195.63949585 C107.25818613 193.8703053 106.33073779 192.10019943 105.40332031 190.33007812 C104.24207274 188.11471621 103.07750431 185.90109096 101.90917969 183.68945312 C101.39516602 182.70783203 100.88115234 181.72621094 100.3515625 180.71484375 C99.89604004 179.84980225 99.44051758 178.98476074 98.97119141 178.09350586 C98 176 98 176 98 174 C85.46 174 72.92 174 60 174 C60 208.98 60 243.96 60 280 C40.2 280 20.4 280 0 280 C0 187.6 0 95.2 0 0 Z M60 49 C60 74.41 60 99.82 60 126 C66.785625 126.0825 73.57125 126.165 80.5625 126.25 C83.72501343 126.30462402 83.72501343 126.30462402 86.95141602 126.36035156 C102.36146233 126.51589508 116.6211448 125.25976304 129 115 C137.03722257 106.91233461 139.94928997 96.29929724 140.1875 85.1875 C140.06354047 75.1591739 138.12803637 67.59629804 131.24609375 60.0859375 C120.9063319 50.26838584 107.01492299 48.64768601 93.30078125 48.8046875 C92.44689819 48.80670166 91.59301514 48.80871582 90.71325684 48.81079102 C87.57961512 48.8211096 84.44605109 48.84902976 81.3125 48.875 C74.279375 48.91625 67.24625 48.9575 60 49 Z " fill="#D48B53" transform="translate(2124,969)"/>
<path d="M0 0 C125.43793189 0 125.43793189 0 138.25 2.75 C139.08716553 2.9248291 139.92433105 3.0996582 140.78686523 3.27978516 C147.83275368 4.82414519 154.44206022 6.97051695 161 10 C162.3921875 10.62648438 162.3921875 10.62648438 163.8125 11.265625 C180.48541674 19.50735089 192.10156696 34.59870377 198 52 C204.68350675 75.27878011 202.45218687 102.17917479 192 124 C183.40371784 139.41527392 170.97520105 151.4608687 155 159 C156.66715091 164.89386879 159.51516927 170.0581222 162.375 175.4375 C163.46626414 177.50905227 164.55740661 179.58066863 165.6484375 181.65234375 C166.2062793 182.7079248 166.76412109 183.76350586 167.33886719 184.85107422 C169.90997378 189.72499145 172.45439746 194.61272906 175 199.5 C175.99985516 201.41674223 176.99985559 203.33340868 178 205.25 C184 216.75 184 216.75 185.50024414 219.62548828 C186.49940809 221.54053895 187.49859425 223.45557803 188.49780273 225.37060547 C191.01077751 230.1869016 193.52335561 235.00340391 196.03515625 239.8203125 C196.78684082 241.26144409 196.78684082 241.26144409 197.55371094 242.73168945 C198.55094874 244.6440301 199.5477022 246.5566234 200.54394531 248.46948242 C203.08007772 253.33571794 205.62911143 258.19458061 208.19921875 263.04296875 C208.71154053 264.01218262 209.2238623 264.98139648 209.75170898 265.97998047 C210.73086782 267.83108049 211.71331536 269.68044567 212.69946289 271.52783203 C213.13379639 272.35009277 213.56812988 273.17235352 214.015625 274.01953125 C214.40008789 274.74245361 214.78455078 275.46537598 215.18066406 276.21020508 C216 278 216 278 216 280 C194.55 280 173.1 280 151 280 C141.125 260.6875 141.125 260.6875 138.07861328 254.7253418 C133.32437043 245.430528 128.52428439 236.16268306 123.64744568 226.93159485 C118.85869244 217.85798282 114.18985785 208.72321026 109.51831055 199.58886719 C108.37158396 197.34763595 107.22338631 195.10716805 106.07421875 192.8671875 C105.71496307 192.16623962 105.3557074 191.46529175 104.98556519 190.74310303 C102.69281433 186.28916958 100.3167366 181.89661014 97.78833008 177.57080078 C97 176 97 176 97 174 C84.79 174 72.58 174 60 174 C60 208.98 60 243.96 60 280 C40.2 280 20.4 280 0 280 C0 187.6 0 95.2 0 0 Z M60 49 C60 74.41 60 99.82 60 126 C70.02375 126.0928125 70.02375 126.0928125 80.25 126.1875 C82.33344727 126.21481201 84.41689453 126.24212402 86.56347656 126.27026367 C102.25739034 126.39090437 117.40894345 124.83220889 129.47265625 113.6484375 C138.02148952 104.4218195 139.70514238 92.99112803 139.27734375 80.8046875 C138.60304254 71.5544146 135.77255191 64.49866194 129 58 C115.04994766 47.49157242 97.104729 48.59820768 80.5625 48.8125 C73.776875 48.874375 66.99125 48.93625 60 49 Z " fill="#D48B53" transform="translate(403,969)"/>
<path d="M0 0 C0.69771011 0.00359528 1.39542023 0.00719055 2.11427307 0.01089478 C3.2117688 0.01067574 3.2117688 0.01067574 4.33143616 0.01045227 C6.76094989 0.0111515 9.19038789 0.01894432 11.61988831 0.02676392 C13.29997719 0.02862806 14.98006662 0.03005198 16.66015625 0.03105164 C21.09071849 0.03487709 25.52124815 0.04470761 29.95179749 0.05575562 C34.46941182 0.06596914 38.98703139 0.07054913 43.50465393 0.07559204 C52.37511098 0.08632986 61.24554381 0.10340661 70.11598206 0.12442017 C70.44186058 1.05567215 70.44186058 1.05567215 70.77432251 2.0057373 C73.57368388 10.00434129 76.37520903 18.00218634 79.17848206 25.99942017 C79.40613251 26.64886597 79.63378296 27.29831177 79.86833191 27.96743774 C85.73567478 44.70392009 91.62878706 61.43034914 97.61598206 78.12442017 C103.50138234 94.5365477 109.29032732 110.98148783 115.05348206 127.43692017 C121.36964786 145.47118283 127.71700404 163.49340839 134.13401794 181.49203491 C138.12940442 192.69982263 142.10400629 203.91461072 146.04957581 215.14004517 C146.68174767 216.93856682 146.68174767 216.93856682 147.32669067 218.77342224 C149.37711669 224.60868403 151.42555812 230.44463549 153.47169495 236.28140259 C154.22794775 238.43616822 154.98437349 240.59087318 155.74098206 242.74551392 C156.10433151 243.78141159 156.46768097 244.81730927 156.84204102 245.88459778 C158.67866284 251.10417948 160.5432829 256.31153153 162.45582581 261.5038147 C163.01632629 263.02725243 163.01632629 263.02725243 163.58815002 264.58146667 C164.29749365 266.50268839 165.01113569 268.42233036 165.72975159 270.34010315 C166.0441217 271.19068802 166.35849182 272.04127289 166.68238831 272.91763306 C166.96026184 273.66090347 167.23813538 274.40417389 167.52442932 275.16996765 C168.11598206 277.12442017 168.11598206 277.12442017 168.11598206 280.12442017 C146.33598206 280.12442017 124.55598206 280.12442017 102.11598206 280.12442017 C98.36705395 269.42359626 94.61819401 258.72277726 90.87646484 248.0194397 C89.44193501 243.9160283 88.00713471 239.81271585 86.56959534 235.71035767 C85.28985217 232.05794335 84.01496178 228.40384918 82.74098206 224.74942017 C82.36658997 223.68288208 81.99219788 222.61634399 81.60646057 221.51748657 C81.27186829 220.55504028 80.937276 219.59259399 80.59254456 218.60098267 C80.30460022 217.77678833 80.01665588 216.95259399 79.71998596 216.10342407 C79.11598206 214.12442017 79.11598206 214.12442017 79.11598206 212.12442017 C48.75598206 212.12442017 18.39598206 212.12442017 -12.88401794 212.12442017 C-13.54401794 215.09442017 -14.20401794 218.06442017 -14.88401794 221.12442017 C-15.47494739 223.20737642 -16.09410327 225.28263256 -16.74754333 227.34683228 C-17.28303551 229.04790382 -17.28303551 229.04790382 -17.8293457 230.78334045 C-18.20961411 231.9774202 -18.58988251 233.17149994 -18.98167419 234.40176392 C-19.37600143 235.6494606 -19.77032867 236.89715729 -20.17660522 238.18266296 C-21.00550973 240.8047094 -21.83693188 243.42593839 -22.6703949 246.04653931 C-23.73901844 249.40676781 -24.80273355 252.76852482 -25.86478519 256.13083553 C-26.88097109 259.34676187 -27.90008508 262.56175632 -28.91917419 265.77676392 C-29.30146683 266.98501328 -29.68375946 268.19326263 -30.07763672 269.43812561 C-30.43147934 270.55010818 -30.78532196 271.66209076 -31.14988708 272.80776978 C-31.61715965 274.27928749 -31.61715965 274.27928749 -32.09387207 275.78053284 C-32.88401794 278.12442017 -32.88401794 278.12442017 -33.88401794 280.12442017 C-54.34401794 280.12442017 -74.80401794 280.12442017 -95.88401794 280.12442017 C-94.75914033 272.25027688 -94.75914033 272.25027688 -93.6157074 268.8812561 C-93.23224403 267.73609276 -93.23224403 267.73609276 -92.84103394 266.5677948 C-92.56260147 265.75632492 -92.28416901 264.94485504 -91.99729919 264.10879517 C-91.55783714 262.80306801 -91.55783714 262.80306801 -91.10949707 261.47096252 C-90.47601541 259.5904508 -89.83987029 257.71083462 -89.20133972 255.83203125 C-87.46687518 250.72677609 -85.7532712 245.61450614 -84.03636169 240.50332642 C-83.68410522 239.45647171 -83.33184875 238.409617 -82.96891785 237.33103943 C-79.66821977 227.51191488 -76.45243414 217.66635876 -73.25901794 207.81192017 C-72.10867286 204.26612089 -70.95752387 200.72058327 -69.80589294 197.17520142 C-69.50407608 196.24600891 -69.20225922 195.31681641 -68.89129639 194.35946655 C-64.68619142 181.42523027 -60.43714197 168.50535294 -56.19351578 155.58371735 C-54.14590232 149.34873054 -52.09875966 143.11358918 -50.05198669 136.87832642 C-49.82946165 136.20043312 -49.60693661 135.52253983 -49.37766838 134.82410431 C-44.86395436 121.07246539 -40.36884975 107.31478247 -35.88154602 93.55450439 C-32.01562795 81.70001683 -28.13978928 69.84884693 -24.24952507 58.00232887 C-23.55816373 55.89696028 -22.86695207 53.7915426 -22.17578125 51.68611145 C-20.14778004 45.50874756 -18.11932896 39.33153463 -16.08790779 33.15529442 C-15.45451668 31.22891633 -14.82170447 29.30234918 -14.18913269 27.3757019 C-13.41536552 25.01912716 -12.64065553 22.66286167 -11.86479187 20.30697632 C-9.97671088 14.55212462 -8.16029982 8.78988876 -6.49359131 2.96669006 C-5.30348571 -0.63008081 -3.50401268 0.00761633 0 0 Z M31.11598206 57.12442017 C30.82768776 58.03901756 30.82768776 58.03901756 30.53356934 58.97209167 C28.44918184 65.58410266 26.36367578 72.1957602 24.27754211 78.80722046 C23.46321127 81.38807621 22.6491428 83.9690145 21.83528137 86.55001831 C17.44686439 100.46594292 13.04570466 114.37732205 8.58082581 128.26895142 C8.05551521 129.90535332 8.05551521 129.90535332 7.51959229 131.57481384 C5.86426928 136.73054459 4.20460247 141.88480325 2.53761292 147.03677368 C1.94636679 148.87582661 1.35529201 150.71493464 0.76441956 152.55410767 C0.35793434 153.80167595 0.35793434 153.80167595 -0.0567627 155.07444763 C-1.05509764 158.19377086 -1.88401794 160.82755449 -1.88401794 164.12442017 C20.55598206 164.12442017 42.99598206 164.12442017 66.11598206 164.12442017 C64.40963103 156.43948963 64.40963103 156.43948963 62.22755432 148.96670532 C61.86244247 147.83796494 61.49733063 146.70922455 61.12115479 145.54627991 C60.53271538 143.74804527 60.53271538 143.74804527 59.93238831 141.91348267 C59.51599419 140.63029356 59.10001356 139.34697021 58.68441772 138.06352234 C57.58065607 134.65787235 56.47221911 131.25376262 55.36273956 127.84997177 C53.53581039 122.24161678 51.71684188 116.63067061 49.89792633 111.01971245 C49.44698027 109.62869616 48.99587454 108.23773162 48.54460907 106.84681892 C45.78585569 98.34128411 43.06056052 89.82669664 40.41676331 81.28457642 C40.15603531 80.44360413 39.89530731 79.60263184 39.62667847 78.73617554 C38.46971885 74.99788186 37.32252203 71.25693758 36.18849182 67.5116272 C35.80104797 66.25334106 35.41360413 64.99505493 35.01441956 63.69863892 C34.69134827 62.6321814 34.36827698 61.56572388 34.03541565 60.46694946 C33.35495852 57.96507622 33.35495852 57.96507622 31.11598206 57.12442017 Z " fill="#D48B53" transform="translate(2751.884017944336,968.8755798339844)"/>
<path d="M0 0 C58.74 0 117.48 0 178 0 C178 16.83 178 33.66 178 51 C139.06 51 100.12 51 60 51 C60 72.12 60 93.24 60 115 C96.63 115 133.26 115 171 115 C171 131.5 171 148 171 165 C134.37 165 97.74 165 60 165 C60 186.12 60 207.24 60 229 C101.25 229 142.5 229 185 229 C185 245.83 185 262.66 185 280 C123.95 280 62.9 280 0 280 C0 187.6 0 95.2 0 0 Z " fill="#D48B53" transform="translate(3918,969)"/>
<path d="M0 0 C58.41 0 116.82 0 177 0 C177 16.83 177 33.66 177 51 C138.06 51 99.12 51 59 51 C59 72.12 59 93.24 59 115 C95.63 115 132.26 115 170 115 C170 131.5 170 148 170 165 C133.37 165 96.74 165 59 165 C59 186.12 59 207.24 59 229 C100.25 229 141.5 229 184 229 C184 245.83 184 262.66 184 280 C123.28 280 62.56 280 0 280 C0 187.6 0 95.2 0 0 Z " fill="#D48B53" transform="translate(996,969)"/>
<path d="M0 0 C58.08 0 116.16 0 176 0 C176 16.83 176 33.66 176 51 C137.72 51 99.44 51 60 51 C60 74.1 60 97.2 60 121 C95.31 121 130.62 121 167 121 C167 137.5 167 154 167 171 C131.69 171 96.38 171 60 171 C60 206.97 60 242.94 60 280 C40.2 280 20.4 280 0 280 C0 187.6 0 95.2 0 0 Z " fill="#D48B53" transform="translate(1566,969)"/>
</svg>
