<?xml version="1.0" encoding="UTF-8"?>
<svg id="Layer_1" data-name="Layer 1" xmlns="http://www.w3.org/2000/svg" viewBox="0 0 355.65 180.7">
  <defs>
    <style>
      .cls-1 {
        fill: #d48b53;
        font-family: AdelleSansDevanagari-Bold, 'Adelle Sans Devanagari';
        font-size: 30.76px;
        font-weight: 700;
      }

      .cls-2 {
        letter-spacing: .9em;
      }

      .cls-3 {
        letter-spacing: .8em;
      }

      .cls-4 {
        fill: #0e0e0e;
      }
    </style>
  </defs>
  <path class="cls-4" d="M18.75,134.25c11.86,18.47,28.26,30.68,49.34,36.15,21.03,5.46,41.33,3.02,60.49-7.34,19.19-10.38,32.1-26.19,39.41-46.71h7.04c-1.28,3.32-2.38,6.51-3.72,9.59-3.98,9.14-9.36,17.41-16.12,24.74-8.18,8.87-17.75,15.85-28.72,20.89-7.62,3.5-15.56,5.91-23.84,7.11-5.75.84-11.52,1.22-17.37.91-8.63-.46-17.01-2.01-25.17-4.84-10.62-3.67-20.19-9.16-28.73-16.47-8.11-6.94-14.78-15.07-19.98-24.38-4.35-7.79-7.55-16.06-9.32-24.81-.83-4.08-1.24-8.26-1.71-12.4C.1,94.48.01,92.24,0,90.01c-.02-10.92,1.93-21.5,5.74-31.73,4-10.72,9.87-20.34,17.53-28.82,6.35-7.04,13.68-12.91,21.9-17.66,9.25-5.34,19.17-8.82,29.65-10.67C80.89.06,87.04-.13,93.22.07c7.89.26,15.56,1.6,23.08,3.94,11,3.42,20.93,8.83,29.85,16.11,8.77,7.15,15.88,15.7,21.39,25.56,3.11,5.57,5.69,11.37,7.48,17.51.11.38.16.77.26,1.26-2.41-.15-4.69-.3-7.05-.45-10.23-27.87-29.37-46.57-58.31-54.3-21.46-5.73-42.24-2.86-61.53,8.11C6.32,41.73-5.86,94.66,18.78,134.23l-.03.02Z"/>
  <text class="cls-1" transform="translate(29.96 100.8)"><tspan class="cls-2" x="0" y="0">REF</tspan><tspan class="cls-3" x="137.74" y="0">RAME</tspan></text>
  <path class="cls-4" d="M336.9,46.45c-11.86-18.47-28.26-30.68-49.34-36.15-21.03-5.46-41.33-3.02-60.49,7.34-19.19,10.38-32.1,26.19-39.41,46.71h-7.04c1.28-3.32,2.38-6.51,3.72-9.59,3.98-9.14,9.36-17.41,16.12-24.74,8.18-8.87,17.75-15.85,28.72-20.89,7.62-3.5,15.56-5.91,23.84-7.11,5.75-.84,11.52-1.22,17.37-.91,8.63.46,17.01,2.01,25.17,4.84,10.62,3.67,20.19,9.16,28.73,16.47,8.11,6.94,14.78,15.07,19.98,24.38,4.35,7.79,7.55,16.06,9.32,24.81.83,4.08,1.24,8.26,1.71,12.4.25,2.21.34,4.45.35,6.68.02,10.92-1.93,21.5-5.74,31.73-4,10.72-9.87,20.34-17.53,28.82-6.35,7.04-13.68,12.91-21.9,17.66-9.25,5.34-19.17,8.82-29.65,10.67-6.07,1.07-12.22,1.26-18.4,1.06-7.89-.26-15.56-1.6-23.08-3.94-11-3.42-20.93-8.83-29.85-16.11-8.77-7.15-15.88-15.7-21.39-25.56-3.11-5.57-5.69-11.37-7.48-17.51-.11-.38-.16-.77-.26-1.26,2.41.15,4.69.3,7.05.45,10.23,27.87,29.37,46.57,58.31,54.3,21.46,5.73,42.24,2.86,61.53-8.11,42.07-23.92,54.25-76.85,29.61-116.42l.03-.02Z"/>
</svg>