<?xml version="1.0" encoding="UTF-8"?>
<svg id="Layer_1" data-name="Layer 1" xmlns="http://www.w3.org/2000/svg" viewBox="0 0 300.31 110.8">
  <defs>
    <style>
      .cls-1 {
        letter-spacing: .9em;
      }

      .cls-1, .cls-2 {
        fill: #d48b53;
        font-family: AdelleSansDevanagari-Bold, 'Adelle Sans Devanagari';
        font-size: 30.76px;
        font-weight: 700;
      }

      .cls-1, .cls-2, .cls-3 {
        isolation: isolate;
      }

      .cls-2 {
        letter-spacing: .8em;
      }

      .cls-4 {
        fill: #0e0e0e;
      }
    </style>
  </defs>
  <g class="cls-3">
    <text class="cls-1" transform="translate(0 26.51)"><tspan x="0" y="0">REF</tspan></text>
    <text class="cls-2" transform="translate(137.74 26.51)"><tspan x="0" y="0">RAME</tspan></text>
  </g>
  <path class="cls-4" d="M293.19,59.77c-4.51-7.02-10.74-11.66-18.76-13.74-7.99-2.08-15.71-1.15-22.99,2.79-7.29,3.95-12.2,9.96-14.98,17.76h-2.68c.49-1.26.9-2.47,1.41-3.65,1.51-3.47,3.56-6.62,6.13-9.4,3.11-3.37,6.75-6.03,10.92-7.94,2.9-1.33,5.91-2.25,9.06-2.7,2.19-.32,4.38-.46,6.6-.35,3.28.17,6.47.76,9.57,1.84,4.04,1.4,7.67,3.48,10.92,6.26,3.08,2.64,5.62,5.73,7.6,9.27,1.65,2.96,2.87,6.1,3.54,9.43.32,1.55.47,3.14.65,4.71.1.84.13,1.69.13,2.54,0,4.15-.73,8.17-2.18,12.06-1.52,4.08-3.75,7.73-6.66,10.96-2.41,2.68-5.2,4.91-8.32,6.71-3.52,2.03-7.29,3.35-11.27,4.06-2.31.41-4.65.48-6.99.4-3-.1-5.91-.61-8.77-1.5-4.18-1.3-7.96-3.36-11.35-6.12-3.33-2.72-6.04-5.97-8.13-9.72-1.18-2.12-2.16-4.32-2.84-6.66-.04-.14-.06-.29-.1-.48.92.06,1.78.11,2.68.17,3.89,10.59,11.16,17.7,22.17,20.64,8.16,2.18,16.06,1.09,23.39-3.08,15.99-9.09,20.62-29.21,11.26-44.26h.01s0,0,0,0Z"/>
  <path class="cls-4" d="M9.4,93.52c4.51,7.02,10.74,11.66,18.76,13.74,7.99,2.08,15.71,1.15,22.99-2.79,7.29-3.95,12.2-9.96,14.98-17.76h2.68c-.49,1.26-.9,2.47-1.41,3.65-1.51,3.47-3.56,6.62-6.13,9.4-3.11,3.37-6.75,6.03-10.92,7.94-2.9,1.33-5.91,2.25-9.06,2.7-2.19.32-4.38.46-6.6.35-3.28-.17-6.47-.76-9.57-1.84-4.04-1.4-7.67-3.48-10.92-6.26-3.08-2.64-5.62-5.73-7.6-9.27-1.65-2.96-2.87-6.1-3.54-9.43-.32-1.55-.47-3.14-.65-4.71-.1-.84-.13-1.69-.13-2.54,0-4.15.73-8.17,2.18-12.06,1.52-4.08,3.75-7.73,6.66-10.96,2.41-2.68,5.2-4.91,8.32-6.71,3.52-2.03,7.29-3.35,11.27-4.06,2.31-.41,4.65-.48,6.99-.4,3,.1,5.91.61,8.77,1.5,4.18,1.3,7.96,3.36,11.35,6.12,3.33,2.72,6.04,5.97,8.13,9.72,1.18,2.12,2.16,4.32,2.84,6.66.04.14.06.29.1.48-.92-.06-1.78-.11-2.68-.17-3.89-10.59-11.16-17.7-22.17-20.64-8.16-2.18-16.06-1.09-23.39,3.08C4.68,58.35.05,78.47,9.41,93.52h-.01s0,0,0,0Z"/>
  <path class="cls-4" d="M129.61,102.83c7.02-4.51,11.66-10.74,13.74-18.76,2.08-7.99,1.15-15.71-2.79-22.99-3.95-7.29-9.96-12.2-17.76-14.98v-2.68c1.26.49,2.47.9,3.65,1.41,3.47,1.51,6.62,3.56,9.4,6.13,3.37,3.11,6.03,6.75,7.94,10.92,1.33,2.9,2.25,5.91,2.7,9.06.32,2.19.46,4.38.35,6.6-.17,3.28-.76,6.47-1.84,9.57-1.4,4.04-3.48,7.67-6.26,10.92-2.64,3.08-5.73,5.62-9.27,7.6-2.96,1.65-6.1,2.87-9.43,3.54-1.55.32-3.14.47-4.71.65-.84.1-1.69.13-2.54.13-4.15,0-8.17-.73-12.06-2.18-4.08-1.52-7.73-3.75-10.96-6.66-2.68-2.41-4.91-5.2-6.71-8.32-2.03-3.52-3.35-7.29-4.06-11.27-.41-2.31-.48-4.65-.4-6.99.1-3,.61-5.91,1.5-8.77,1.3-4.18,3.36-7.96,6.12-11.35,2.72-3.33,5.97-6.04,9.72-8.13,2.12-1.18,4.32-2.16,6.66-2.84.14-.04.29-.06.48-.1-.06.92-.11,1.78-.17,2.68-10.59,3.89-17.7,11.16-20.64,22.17-2.18,8.16-1.09,16.06,3.08,23.39,9.09,15.99,29.21,20.62,44.26,11.26h0s0,.01,0,.01Z"/>
  <path class="cls-4" d="M172.98,50.46c-7.02,4.51-11.66,10.74-13.74,18.76-2.08,7.99-1.15,15.71,2.79,22.99,3.95,7.29,9.96,12.2,17.76,14.98v2.68c-1.26-.49-2.47-.9-3.65-1.41-3.47-1.51-6.62-3.56-9.4-6.13-3.37-3.11-6.03-6.75-7.94-10.92-1.33-2.9-2.25-5.91-2.7-9.06-.32-2.19-.46-4.38-.35-6.6.17-3.28.76-6.47,1.84-9.57,1.4-4.04,3.48-7.67,6.26-10.92,2.64-3.08,5.73-5.62,9.27-7.6,2.96-1.65,6.1-2.87,9.43-3.54,1.55-.32,3.14-.47,4.71-.65.84-.1,1.69-.13,2.54-.13,4.15,0,8.17.73,12.06,2.18,4.08,1.52,7.73,3.75,10.96,6.66,2.68,2.41,4.91,5.2,6.71,8.32,2.03,3.52,3.35,7.29,4.06,11.27.41,2.31.48,4.65.4,6.99-.1,3-.61,5.91-1.5,8.77-1.3,4.18-3.36,7.96-6.12,11.35-2.72,3.33-5.97,6.04-9.72,8.13-2.12,1.18-4.32,2.16-6.66,2.84-.14.04-.29.06-.48.1.06-.92.11-1.78.17-2.68,10.59-3.89,17.7-11.16,20.64-22.17,2.18-8.16,1.09-16.06-3.08-23.39-9.09-15.99-29.21-20.62-44.26-11.26h0s0-.01,0-.01Z"/>
</svg>