<?xml version="1.0" encoding="UTF-8"?>
<svg version="1.1" xmlns="http://www.w3.org/2000/svg" width="2160" height="314">
<path d="M0 0 C17.49 0 34.98 0 53 0 C54.83666793 4.89778115 56.54062107 9.56458672 58.00195312 14.54736328 C58.36697937 15.78672134 58.73200562 17.02607941 59.10809326 18.30299377 C59.49921308 19.64208028 59.89026335 20.9811871 60.28125 22.3203125 C60.69565562 23.73155344 61.11031378 25.14272024 61.52520752 26.55381775 C62.62710117 30.30446019 63.72521031 34.05619988 64.8223114 37.80824661 C65.72674633 40.90015739 66.63302799 43.9915256 67.53928757 47.08290195 C69.76333575 54.66969695 71.98332379 62.25767246 74.20087814 69.84636784 C75.76966737 75.21421427 77.34291494 80.58074436 78.91748047 85.94689941 C79.96640229 89.52467693 81.01179225 93.10347522 82.05541992 96.68280029 C82.51591974 98.260518 82.97765738 99.83787498 83.44067383 101.41485596 C84.06328592 103.53718348 84.68087444 105.66090202 85.296875 107.78515625 C85.63041992 108.92863525 85.96396484 110.07211426 86.30761719 111.25024414 C87 114 87 114 87 117 C87.66 117 88.32 117 89 117 C89.09583878 116.44906677 89.19167755 115.89813354 89.29042053 115.33050537 C90.74784483 107.49345646 92.94124829 99.90780576 95.18359375 92.265625 C95.60004673 90.83481971 96.01611972 89.40390377 96.43183899 87.97288513 C97.53546557 84.17753879 98.64406255 80.38366172 99.75364685 76.59005356 C100.89579463 72.68177738 102.0331965 68.77212104 103.17089844 64.86254883 C104.74448115 59.45648721 106.31935838 54.05080667 107.89626884 48.64571476 C111.1972678 37.3310504 114.47713727 26.01033311 117.75 14.6875 C119.85375 7.4171875 119.85375 7.4171875 122 0 C139.49 0 156.98 0 175 0 C175 54.12 175 108.24 175 164 C164.11 164 153.22 164 142 164 C141.67 123.41 141.34 82.82 141 41 C127.52167485 84.91036732 127.52167485 84.91036732 114.234375 128.87890625 C113.88174088 130.05827759 113.52910675 131.23764893 113.16578674 132.45275879 C111.54030837 137.89440476 109.92028791 143.33762164 108.30639648 148.78271484 C107.7394364 150.68717919 107.1724615 152.59163913 106.60546875 154.49609375 C106.35234924 155.35610489 106.09922974 156.21611603 105.83843994 157.10218811 C104.11293775 162.88706225 104.11293775 162.88706225 103 164 C100.55169574 164.08843793 98.13179401 164.11528752 95.68359375 164.09765625 C94.58701195 164.09553383 94.58701195 164.09553383 93.46827698 164.09336853 C91.12464368 164.08775408 88.78110461 164.07519922 86.4375 164.0625 C84.85221492 164.05748686 83.26692834 164.05292363 81.68164062 164.04882812 C77.7877239 164.03777997 73.89387795 164.02050572 70 164 C67.66754832 156.0841165 65.33620189 148.16790842 63.00596619 140.25137234 C61.92175676 136.56808016 60.83727768 132.88486805 59.75195312 129.2019043 C51.09544497 99.82208485 42.5555631 70.40974814 34 41 C33.67 81.59 33.34 122.18 33 164 C22.11 164 11.22 164 0 164 C0 109.88 0 55.76 0 0 Z " fill="#D48C54" transform="translate(1654,31)"/>
<path d="M0 0 C93.78187086 0 93.78187086 0 108.875 14.609375 C112.00526161 18.13091931 114.14217937 21.68530637 116 26 C116.45826172 26.99193359 116.45826172 26.99193359 116.92578125 28.00390625 C122.24804302 41.29694869 120.52383237 57.14717923 115.8125 70.3203125 C111.37635496 80.175612 103.89866025 88.46311405 94 93 C93.34 93 92.68 93 92 93 C103.04506264 114.60792158 103.04506264 114.60792158 114.5 136 C114.98017578 136.87519287 115.46035156 137.75038574 115.95507812 138.65209961 C117.30179804 141.10227762 118.6506007 143.55129684 120 146 C121.59243324 148.89098135 123.17571444 151.78660129 124.75 154.6875 C125.08580078 155.29400391 125.42160156 155.90050781 125.76757812 156.52539062 C127.24432844 159.258814 128 160.83538319 128 164 C115.13 164 102.26 164 89 164 C86.1125 158.34875 83.225 152.6975 80.25 146.875 C73.32784466 133.36141849 66.30559804 119.92363089 58.91357422 106.65942383 C58.24970859 105.45357277 57.61559635 104.2311927 57 103 C50.07 102.67 43.14 102.34 36 102 C36 122.46 36 142.92 36 164 C24.12 164 12.24 164 0 164 C0 109.88 0 55.76 0 0 Z M36 29 C36 43.85 36 58.7 36 74 C40.063125 74.0825 44.12625 74.165 48.3125 74.25 C49.56973877 74.28641602 50.82697754 74.32283203 52.12231445 74.36035156 C61.01314685 74.44673119 68.26726528 72.81950154 75.9375 68.25 C81.24501956 62.45997866 83.27129668 55.80862626 83 48 C82.25930725 42.7137928 80.88522548 38.34499115 77 34.5625 C68.50769174 28.52262719 58.33408263 28.59479308 48.3125 28.8125 C42.2178125 28.9053125 42.2178125 28.9053125 36 29 Z " fill="#D48C54" transform="translate(17,31)"/>
<path d="M0 0 C85.73809524 0 85.73809524 0 98 7 C99.13501953 7.63035156 99.13501953 7.63035156 100.29296875 8.2734375 C110.23686898 14.30307215 115.6298015 23.10385495 118.5859375 34.19921875 C120.78028321 49.04210434 119.8666125 65.45913369 111 78 C106.20760642 84.10274211 101.17384008 89.73134385 94 93 C93.34 93 92.68 93 92 93 C101.6469954 112.56362731 111.60320064 131.99237472 122.26855469 151.02197266 C122.73165039 151.85647949 123.19474609 152.69098633 123.671875 153.55078125 C124.0750293 154.26919189 124.47818359 154.98760254 124.89355469 155.7277832 C126 158 126 158 128 164 C115.13 164 102.26 164 89 164 C87.1025 160.32875 85.205 156.6575 83.25 152.875 C78.32784189 143.37869622 73.28160098 133.96064871 68.12695312 124.58886719 C64.22790093 117.47743799 60.56200582 110.28592099 57 103 C46.11 102.505 46.11 102.505 35 102 C35 122.46 35 142.92 35 164 C23.45 164 11.9 164 0 164 C0 109.88 0 55.76 0 0 Z M35 29 C35 43.85 35 58.7 35 74 C39.228125 74.0825 43.45625 74.165 47.8125 74.25 C49.7766687 74.30462402 49.7766687 74.30462402 51.78051758 74.36035156 C60.19457456 74.43899354 68.67984816 73.83657035 75.2355957 68.01464844 C81.27237147 61.56401914 82.46429623 55.95002428 82.31640625 47.234375 C81.75912714 41.53774407 79.68314457 37.94613591 76 33.6875 C67.1389973 28.70318598 57.16004427 28.59564582 47.25 28.8125 C43.2075 28.874375 39.165 28.93625 35 29 Z " fill="#D48C54" transform="translate(985,31)"/>
<path d="M0 0 C14.85 0 29.7 0 45 0 C46.41410156 3.98835938 47.82820313 7.97671875 49.28515625 12.0859375 C61.92590134 47.74084761 61.92590134 47.74084761 74.625 83.375 C74.90789886 84.16680664 75.19079773 84.95861328 75.48226929 85.77441406 C78.73109642 94.86694437 81.98455957 103.95780969 85.24092293 113.04764366 C87.09702283 118.22906486 88.95174024 123.41097995 90.80570793 128.59316444 C91.94842885 131.78700678 93.09189717 134.98057735 94.23712158 138.17352295 C95.51136284 141.72704826 96.78326906 145.28140141 98.0546875 148.8359375 C98.43933167 149.90674561 98.82397583 150.97755371 99.22027588 152.08081055 C99.57281433 153.06782959 99.92535278 154.05484863 100.28857422 155.07177734 C100.59640839 155.93104828 100.90424255 156.79031921 101.22140503 157.67562866 C101.91697132 159.75213108 102.46887053 161.87548211 103 164 C89.8 164 76.6 164 63 164 C59.7825 154.904375 59.7825 154.904375 56.5 145.625 C55.82130859 143.71154785 55.14261719 141.7980957 54.44335938 139.82666016 C53.90990803 138.31421513 53.37668887 136.80168818 52.84375 135.2890625 C52.56305664 134.50039795 52.28236328 133.7117334 51.99316406 132.89916992 C50 127.2281436 50 127.2281436 50 125 C32.18 125.33 14.36 125.66 -4 126 C-7.96 138.54 -11.92 151.08 -16 164 C-28.54 164 -41.08 164 -54 164 C-47.37817222 142.35520571 -40.36326449 120.87208672 -33.16384506 99.41390991 C-30.56407637 91.66079216 -27.97386986 83.90446984 -25.3828125 76.1484375 C-25.1020027 75.30817268 -24.82119289 74.46790787 -24.5318737 73.60218048 C-19.30150786 57.94835846 -14.15168446 42.26961454 -9.09692383 26.55810547 C-8.84786285 25.78622894 -8.59880188 25.01435242 -8.3421936 24.21908569 C-7.70607741 22.24634676 -7.07294834 20.27264523 -6.44018555 18.29882812 C-4.38605119 12.16741639 -2.17486874 6.08963248 0 0 Z M22 35 C19.00159579 42.18867099 16.46230489 49.4562262 14.109375 56.87890625 C13.75989807 57.97218735 13.41042114 59.06546844 13.050354 60.19187927 C12.31928917 62.48129509 11.58996131 64.77126623 10.86230469 67.06176758 C9.74292066 70.58478064 8.61799632 74.10598849 7.4921875 77.62695312 C6.78092954 79.85666864 6.06998071 82.08648278 5.359375 84.31640625 C5.02194275 85.37356339 4.6845105 86.43072052 4.33685303 87.51991272 C4.02943176 88.48859787 3.7220105 89.45728302 3.40527344 90.45532227 C3.13309998 91.31118423 2.86092651 92.1670462 2.58050537 93.04884338 C1.95247248 94.82046617 1.95247248 94.82046617 2 96 C15.2 96 28.4 96 42 96 C39.71766766 87.53217403 39.71766766 87.53217403 37.19067383 79.16137695 C36.87056839 78.1611702 36.55046295 77.16096344 36.22065735 76.13044739 C35.88616074 75.09353256 35.55166412 74.05661774 35.20703125 72.98828125 C34.85613937 71.89404343 34.5052475 70.7998056 34.14372253 69.67240906 C33.03555123 66.21838328 31.92408405 62.76542879 30.8125 59.3125 C30.05511931 56.95384643 29.2979558 54.59512311 28.54101562 52.23632812 C26.6965187 46.49007722 24.84932332 40.74469932 23 35 C22.67 35 22.34 35 22 35 Z " fill="#D48C54" transform="translate(1352,31)"/>
<path d="M0 0 C34.65 0 69.3 0 105 0 C105 9.9 105 19.8 105 30 C82.23 30 59.46 30 36 30 C36 42.54 36 55.08 36 68 C57.45 68 78.9 68 101 68 C101 77.57 101 87.14 101 97 C79.55 97 58.1 97 36 97 C36 109.21 36 121.42 36 134 C60.09 134 84.18 134 109 134 C109 143.9 109 153.8 109 164 C73.03 164 37.06 164 0 164 C0 109.88 0 55.76 0 0 Z " fill="#D48C54" transform="translate(2043,31)"/>
<path d="M0 0 C34.65 0 69.3 0 105 0 C105 9.9 105 19.8 105 30 C82.23 30 59.46 30 36 30 C36 42.54 36 55.08 36 68 C57.45 68 78.9 68 101 68 C101 77.57 101 87.14 101 97 C79.55 97 58.1 97 36 97 C36 109.21 36 121.42 36 134 C60.09 134 84.18 134 109 134 C109 143.9 109 153.8 109 164 C73.03 164 37.06 164 0 164 C0 109.88 0 55.76 0 0 Z " fill="#D48C54" transform="translate(344,31)"/>
<path d="M0 0 C34.32 0 68.64 0 104 0 C104 9.9 104 19.8 104 30 C81.56 30 59.12 30 36 30 C36 43.53 36 57.06 36 71 C56.79 71 77.58 71 99 71 C99 80.57 99 90.14 99 100 C78.21 100 57.42 100 36 100 C36 121.12 36 142.24 36 164 C24.12 164 12.24 164 0 164 C0 109.88 0 55.76 0 0 Z " fill="#D48C54" transform="translate(681,31)"/>
</svg>
