<?xml version="1.0" encoding="UTF-8"?>
<svg version="1.1" xmlns="http://www.w3.org/2000/svg" width="165" height="151">
<path d="M0 0 C1.73263596 -0.0129007 1.73263596 -0.0129007 3.50027466 -0.02606201 C5.39545334 -0.03245193 5.39545334 -0.03245193 7.32891846 -0.03897095 C8.67611907 -0.04687669 10.02331759 -0.05514594 11.37051392 -0.06375122 C15.79054762 -0.08991518 20.21059053 -0.10527254 24.63067627 -0.11953735 C26.15475724 -0.12489922 27.67883815 -0.13027673 29.20291901 -0.13566971 C35.54417984 -0.15728956 41.88543819 -0.1760251 48.22672653 -0.1872921 C57.30216006 -0.20352563 66.37716513 -0.23669875 75.45243716 -0.29369295 C81.84070038 -0.33243932 88.22884922 -0.35193027 94.61722684 -0.35721266 C98.42940779 -0.36085953 102.24113118 -0.37280929 106.05318451 -0.4053154 C109.64190525 -0.43547974 113.22989353 -0.44167881 116.81871414 -0.42993164 C118.75428392 -0.42960715 120.68980907 -0.45401668 122.62521362 -0.47930908 C129.83004426 -0.42792466 134.81105245 0.3228752 140.33380127 5.15390015 C144.67271285 9.71532001 145.45398163 13.15181152 145.47424316 19.30206299 C145.47995331 20.34224579 145.48566345 21.38242859 145.49154663 22.45413208 C145.49322342 24.15765839 145.49322342 24.15765839 145.49493408 25.89559937 C145.49989899 27.09598846 145.50486389 28.29637756 145.50997925 29.53314209 C145.52207505 32.82246515 145.52954246 36.11175269 145.53398991 39.40109396 C145.53692474 41.45751436 145.54103028 43.51392923 145.54549408 45.57034683 C145.55916052 52.00854525 145.56883179 58.44673098 145.57269597 64.88494289 C145.57717711 72.3095294 145.59473104 79.73393185 145.62369657 87.15846241 C145.64532781 92.90296678 145.65540099 98.64741942 145.65673709 104.39196408 C145.65778394 107.82054359 145.66366609 111.24894988 145.6815567 114.67748642 C145.69859257 118.50293724 145.69674275 122.3279386 145.69024658 126.15341187 C145.69946136 127.28504761 145.70867615 128.41668335 145.71817017 129.58261108 C145.68842018 135.16931393 145.59681265 139.38591413 142.33380127 144.15390015 C137.07349315 149.18549922 132.84462848 151.39962919 125.57858276 151.41459656 C124.42908646 151.42168137 123.27959015 151.42876617 122.09526062 151.43606567 C120.84318314 151.43358826 119.59110565 151.43111084 118.30108643 151.42855835 C116.96196712 151.43290816 115.62285031 151.43809221 114.28373718 151.44404602 C110.65348562 151.45741941 107.02333827 151.45801648 103.39306688 151.45548272 C100.35888153 151.45441173 97.32471714 151.45929973 94.29053628 151.46408814 C87.12981173 151.47517791 79.96913963 151.47562394 72.80841064 151.46957397 C65.43013555 151.46353587 58.05205124 151.47584218 50.67380869 151.49714404 C44.3313881 151.51477963 37.98902812 151.52075826 31.64658391 151.5175063 C27.86197876 151.51569617 24.07750966 151.51830234 20.29292679 151.53222084 C16.73221285 151.54482628 13.17179545 151.5428297 9.61108589 151.52980995 C7.6885157 151.52632905 5.76593634 151.53760258 3.84339905 151.54937744 C-4.05298124 151.50142838 -9.34417148 151.03299043 -15.47869873 145.71640015 C-18.85328849 141.76330929 -19.91413416 139.10609121 -19.94035339 133.90530396 C-19.95032852 132.84276901 -19.96030365 131.78023407 -19.97058105 130.6855011 C-19.97124573 129.52490677 -19.9719104 128.36431244 -19.97259521 127.16854858 C-19.98091873 125.94211136 -19.98924225 124.71567413 -19.99781799 123.45207214 C-20.01778946 120.09023897 -20.02855974 116.72865352 -20.03364444 113.36678219 C-20.03729104 111.26410537 -20.04353276 109.16145225 -20.05064583 107.05878448 C-20.07513705 99.7162929 -20.08819088 92.37387189 -20.09173584 85.03134155 C-20.0953678 78.19886958 -20.12523913 71.36684773 -20.16714042 64.53451324 C-20.20189774 58.66003063 -20.21728524 52.78569675 -20.21798187 46.91111207 C-20.21877305 43.40634028 -20.22743643 39.90202685 -20.25597954 36.39736176 C-20.28714089 32.48367619 -20.27807445 28.57063087 -20.26556396 24.65682983 C-20.28039825 23.50433243 -20.29523254 22.35183502 -20.31051636 21.16441345 C-20.24777461 14.2640184 -19.31785113 9.42697 -14.66619873 4.15390015 C-9.97313725 0.60548781 -5.77157183 0.03204615 0 0 Z M12.33380127 58.15390015 C7.58881255 64.19404708 5.98935711 70.53307313 6.33380127 78.15390015 C7.40787093 85.71714069 10.59103426 91.15064438 16.33380127 96.15390015 C22.02404724 100.30429097 28.3753036 101.4020634 35.33380127 101.15390015 C42.1891918 99.9223276 48.5950299 96.77957934 52.84161377 91.1578064 C55.63652109 86.80573643 57.48267715 83.23532897 57.39630127 77.96640015 C57.37567627 76.70827515 57.35505127 75.45015015 57.33380127 74.15390015 C60.63380127 74.15390015 63.93380127 74.15390015 67.33380127 74.15390015 C67.39567627 75.63890015 67.45755127 77.12390015 67.52130127 78.65390015 C68.22158924 85.53033892 71.10306312 90.36712932 76.20880127 94.96640015 C83.82858228 100.30024685 90.07886548 101.13105963 99.33380127 100.15390015 C106.56718069 98.4218108 111.2204195 94.2292201 115.33380127 88.15390015 C118.74105218 82.22455604 119.19393538 75.86294621 118.33380127 69.15390015 C116.07904231 61.41983448 111.86257343 55.35058369 104.83380127 51.27890015 C97.89878454 48.10035081 90.83881671 47.84255164 83.52911377 49.9703064 C76.48808214 53.04139466 71.75190253 58.31769763 68.33380127 65.15390015 C64.2125562 65.69406333 60.43349011 65.93378954 56.33380127 65.15390015 C54.25148553 63.09794283 53.13144316 61.0555185 51.75567627 58.48202515 C48.90462208 53.81381554 44.14272718 51.92915411 39.27130127 49.84140015 C29.14929324 47.47241954 19.6033797 50.91599744 12.33380127 58.15390015 Z " fill="#4D959D" transform="translate(19.66619873046875,-0.153900146484375)"/>
<path d="M0 0 C4.61780427 2.58837818 8.15428857 5.91803775 9.66015625 11.11328125 C10.38831241 16.75649147 10.46768247 21.43841204 7.97265625 26.61328125 C3.96719762 30.9435068 0.52970291 33.87164638 -5.33984375 35.11328125 C-11.39870638 35.21135636 -15.60210534 34.07975992 -20.33984375 30.11328125 C-25.1535989 24.64901865 -25.70394682 21.34761428 -25.609375 14.16015625 C-25.15182001 8.98779553 -23.56478456 6.16546195 -19.6796875 2.58203125 C-13.75967291 -1.79416023 -6.90756903 -2.6177265 0 0 Z " fill="#4B949C" transform="translate(120.33984375,57.88671875)"/>
<path d="M0 0 C5.01211801 2.82501197 8.26909118 5.89765672 10.359375 11.3359375 C11.64771956 16.44218118 11.69907725 20.36955125 9.484375 25.1875 C6.57745958 30.04682131 2.68983852 32.98074643 -2.5625 34.9375 C-8.89384931 35.65232976 -13.28643821 34.54867118 -18.5625 30.9375 C-22.69183542 26.69949786 -24.3610229 22.98585049 -24.9375 17.125 C-24.76971958 11.20794384 -22.31301379 6.64312882 -18.125 2.5625 C-12.00953901 -1.31559721 -7.05524422 -2.10419565 0 0 Z " fill="#4C959C" transform="translate(58.5625,58.0625)"/>
<path d="M0 0 C0.66 0.33 1.32 0.66 2 1 C1.34 2.65 0.68 4.3 0 6 C-0.99 6 -1.98 6 -3 6 C-1.125 1.125 -1.125 1.125 0 0 Z M4 0 C4.33 0.66 4.66 1.32 5 2 C4.34 1.67 3.68 1.34 3 1 C3.33 0.67 3.66 0.34 4 0 Z " fill="#3F8F97" transform="translate(100,61)"/>
</svg>
