<?xml version="1.0" encoding="UTF-8"?>
<svg version="1.1" xmlns="http://www.w3.org/2000/svg" width="2262" height="816">
<path d="M0 0 C0.84167725 0.00182281 1.68335449 0.00364563 2.55053711 0.00552368 C17.16851747 0.05843992 31.50144525 0.87060464 45.9375 3.3125 C46.87271484 3.4681543 47.80792969 3.62380859 48.77148438 3.78417969 C91.27792691 11.19396664 131.50619682 30.22230835 164.9375 57.3125 C165.48728516 57.75787109 166.03707031 58.20324219 166.60351562 58.66210938 C180.29846586 69.86132473 193.19011719 82.23170435 203.9375 96.3125 C204.86547212 97.48860747 205.7938872 98.66436552 206.72265625 99.83984375 C214.74298636 110.12309011 221.46663785 121.0040577 227.9375 132.3125 C228.50162598 133.27591309 228.50162598 133.27591309 229.07714844 134.25878906 C237.25240284 148.25267523 248.9375 168.86474535 248.9375 185.3125 C244.26934414 185.37077102 239.60572815 185.35851758 234.9375 185.3125 C234.16277344 185.33183594 233.38804687 185.35117187 232.58984375 185.37109375 C230.8125 185.3125 230.8125 185.3125 227.9375 184.3125 C226.90478516 182.74829102 226.90478516 182.74829102 225.9765625 180.75390625 C225.63512207 180.0283252 225.29368164 179.30274414 224.94189453 178.55517578 C223.72492814 175.83785606 222.52399031 173.11523035 221.35205078 170.37817383 C213.82705631 152.86739518 205.19971295 135.73223783 193.9375 120.3125 C193.52258301 119.74354004 193.10766602 119.17458008 192.68017578 118.58837891 C187.79035936 111.94642527 182.60457391 105.63509577 177.0078125 99.5703125 C175.15321134 97.54774746 173.38714839 95.47766016 171.625 93.375 C157.4998493 77.28712904 139.41078594 64.85525245 120.9375 54.3125 C120.23657227 53.91047363 119.53564453 53.50844727 118.81347656 53.09423828 C107.61302722 46.73928048 96.00832922 41.76998091 83.9375 37.3125 C82.83051758 36.90088623 82.83051758 36.90088623 81.70117188 36.48095703 C68.42273991 31.6144057 54.76744828 28.21196785 40.9375 25.3125 C40.07833984 25.13025879 39.21917969 24.94801758 38.33398438 24.76025391 C12.77125052 19.6262516 -17.59400662 19.77704501 -43.0625 25.3125 C-43.89974609 25.48410645 -44.73699219 25.65571289 -45.59960938 25.83251953 C-86.48149178 34.31043399 -124.4535132 53.01155261 -156.0625 80.3125 C-157.26712891 81.35083984 -157.26712891 81.35083984 -158.49609375 82.41015625 C-170.24962443 92.7720689 -180.73164371 103.72881326 -190.0625 116.3125 C-190.4862793 116.87549805 -190.91005859 117.43849609 -191.34667969 118.01855469 C-228.24381327 167.16746514 -243.28481112 228.58612892 -236.0625 289.3125 C-227.39379146 348.99755421 -197.13825695 406.04868839 -149.0625 443.3125 C-148.14082031 444.03953125 -147.21914062 444.7665625 -146.26953125 445.515625 C-116.9644075 468.13712404 -82.87985965 482.40977355 -46.8125 490.0625 C-45.87946045 490.26125732 -44.9464209 490.46001465 -43.98510742 490.66479492 C-28.90039158 493.71891642 -14.2212065 494.69088018 1.125 494.625 C2.03024414 494.62284485 2.93548828 494.6206897 3.86816406 494.61846924 C17.11665052 494.56786901 29.95255952 494.14905324 42.9375 491.3125 C43.89897949 491.11382324 44.86045898 490.91514648 45.85107422 490.71044922 C102.1084787 478.9331817 155.39674466 447.74706646 189.9375 401.3125 C190.57534424 400.46582764 190.57534424 400.46582764 191.22607422 399.60205078 C206.43468705 379.34144199 217.36505233 356.69438038 226.9375 333.3125 C233.8675 333.3125 240.7975 333.3125 247.9375 333.3125 C246.87154962 339.70820225 244.9134495 344.96403156 242.5 350.9375 C241.83000977 352.59833618 241.83000977 352.59833618 241.14648438 354.29272461 C225.57438768 392.29748585 201.0356341 428.20542134 168.765625 454.0390625 C166.96365055 455.48761102 165.17998128 456.95944922 163.421875 458.4609375 C149.89788825 469.95217778 134.65448663 479.1536596 118.9375 487.3125 C118.26460938 487.6626416 117.59171875 488.0127832 116.8984375 488.37353516 C57.02269057 519.05985546 -14.99998578 523.3852601 -78.86572266 503.37353516 C-94.11814418 498.31113834 -108.9249199 491.94612656 -123.0625 484.3125 C-123.72008301 483.96364746 -124.37766602 483.61479492 -125.05517578 483.25537109 C-134.95361917 477.98550893 -144.12734588 472.08163292 -153.0625 465.3125 C-153.64241699 464.87679688 -154.22233398 464.44109375 -154.81982422 463.9921875 C-163.72420134 457.2715321 -172.03291748 450.05281506 -180.0625 442.3125 C-180.61856934 441.77834473 -181.17463867 441.24418945 -181.74755859 440.69384766 C-189.06368445 433.62964005 -195.83989315 426.37649051 -202.0625 418.3125 C-202.73249023 417.46510254 -202.73249023 417.46510254 -203.41601562 416.60058594 C-215.66366882 401.09628341 -225.77925808 384.24313792 -234.0625 366.3125 C-234.4244043 365.53890137 -234.78630859 364.76530273 -235.15917969 363.96826172 C-244.59267368 343.60944667 -250.59703245 322.45699809 -254.0625 300.3125 C-254.21203125 299.40612793 -254.3615625 298.49975586 -254.515625 297.56591797 C-265.22170464 230.94133834 -248.37016894 161.70318571 -209.015625 107.046875 C-203.42528923 99.4103222 -197.51525283 92.24230459 -191.0625 85.3125 C-189.91207817 83.98312367 -188.76605612 82.64992392 -187.625 81.3125 C-180.14603289 72.76756516 -171.95652836 65.34772349 -163.0625 58.3125 C-162.01445825 57.45193981 -160.96762103 56.58991097 -159.921875 55.7265625 C-150.50878082 48.03618969 -140.45780573 41.58970814 -130.0625 35.3125 C-129.40588379 34.90789551 -128.74926758 34.50329102 -128.07275391 34.08642578 C-104.19764678 19.43394574 -76.8970317 10.29003819 -49.625 4.4375 C-48.73989746 4.24623535 -47.85479492 4.0549707 -46.94287109 3.85791016 C-31.44108289 0.75867849 -15.7709729 -0.07177562 0 0 Z " fill="#0E0E0F" transform="translate(257.0625,300.6875)"/>
<path d="M0 0 C0.72396973 0.50370117 1.44793945 1.00740234 2.19384766 1.52636719 C13.03834614 9.13346722 22.92880658 17.28099907 32.41772461 26.51489258 C33.96794033 27.96990912 35.56459968 29.32727674 37.2109375 30.671875 C39.50597038 32.58761673 41.40076174 34.41020972 43.3125 36.6875 C45.15524919 38.85873927 46.99861199 40.99852871 48.953125 43.0703125 C60.73790424 55.59709636 70.69802633 69.9631745 79 85 C79.45584473 85.81355957 79.91168945 86.62711914 80.38134766 87.46533203 C97.36238265 117.98643447 106.84703423 149.42617495 111 184 C111.12391113 185.01175293 111.24782227 186.02350586 111.37548828 187.06591797 C119.14076093 253.30555031 98.59067265 321.01176318 57.47802734 373.14746094 C45.23190616 388.49658012 31.66306617 403.09089184 16 415 C14.82501566 415.92644299 13.65057379 416.85357424 12.4765625 417.78125 C2.1927887 425.80400588 -8.68994746 432.52821644 -20 439 C-20.96341309 439.56412598 -20.96341309 439.56412598 -21.94628906 440.13964844 C-47.77990215 455.23169338 -77.68595141 463.90190459 -107 469 C-107.75506836 469.13277344 -108.51013672 469.26554688 -109.28808594 469.40234375 C-173.12925961 479.91944594 -243.70170379 461.74941016 -295.98486328 424.46582031 C-304.30372015 418.41464311 -312.22464459 412.0003278 -319.7890625 405.0234375 C-321.73331937 403.2440646 -323.72392702 401.55911974 -325.75 399.875 C-337.72258173 389.37189007 -347.71704981 376.8753564 -357 364 C-357.4429541 363.38721191 -357.8859082 362.77442383 -358.34228516 362.14306641 C-371.91294598 343.13997048 -394 310.34391189 -394 286 C-391.64575325 285.97273073 -389.29183038 285.95303281 -386.9375 285.9375 C-385.62652344 285.92589844 -384.31554688 285.91429687 -382.96484375 285.90234375 C-381.65644531 285.93457031 -380.34804687 285.96679688 -379 286 C-377.79085938 285.92136719 -376.58171875 285.84273437 -375.3359375 285.76171875 C-372 287 -372 287 -370.58325195 289.21362305 C-369.1370698 292.39105596 -367.89661438 295.60002082 -366.6875 298.875 C-365.73801163 301.27201272 -364.78222349 303.66653911 -363.8203125 306.05859375 C-363.34754883 307.24308105 -362.87478516 308.42756836 -362.38769531 309.64794922 C-353.69972579 330.6341951 -340.78689691 349.87334106 -326 367 C-325.23171875 367.89847656 -324.4634375 368.79695313 -323.671875 369.72265625 C-321.49665343 372.19999193 -319.27002088 374.60915542 -317 377 C-316.49919922 377.52803223 -315.99839844 378.05606445 -315.48242188 378.60009766 C-307.24052807 387.22878636 -298.68250162 395.01993908 -289 402 C-288.34080566 402.47646973 -287.68161133 402.95293945 -287.00244141 403.44384766 C-245.43115024 433.10969969 -194.33109852 449.53765731 -143.3125 449.3125 C-141.99014847 449.30926727 -141.99014847 449.30926727 -140.64108276 449.30596924 C-127.53181323 449.25458887 -114.85226859 448.77669365 -102 446 C-101.04770508 445.80664062 -100.09541016 445.61328125 -99.11425781 445.4140625 C-55.82029037 436.50504665 -14.73827042 415.93531895 17.38671875 385.4375 C19.26609981 383.68453471 21.13580492 382.04329665 23.12109375 380.421875 C25.46280567 378.45191382 27.41492319 376.57821306 29.375 374.25 C31.12984516 372.18301319 32.87681459 370.13152754 34.73046875 368.15234375 C47.82151053 354.11227122 58.07119884 337.9132725 67 321 C67.41088867 320.2275293 67.82177734 319.45505859 68.24511719 318.65917969 C96.53160305 264.67466627 100.3665197 199.37707949 82.56982422 141.52319336 C74.13510295 115.54082183 61.76302253 91.55404924 45 70 C44.57058105 69.44747559 44.14116211 68.89495117 43.69873047 68.32568359 C41.20746901 65.15066544 38.63349809 62.0576195 36 59 C35.33226563 58.22140625 34.66453125 57.4428125 33.9765625 56.640625 C-6.28342288 10.84302081 -63.8968737 -18.35600916 -125 -23 C-131.89230845 -23.34353087 -138.78836996 -23.34133149 -145.6875 -23.3125 C-147.08088089 -23.30926727 -147.08088089 -23.30926727 -148.50241089 -23.30596924 C-161.89277413 -23.25610039 -174.8784301 -22.88508639 -188 -20 C-189.44004395 -19.70198486 -189.44004395 -19.70198486 -190.90917969 -19.39794922 C-229.5303865 -11.31401835 -266.71540574 5.4910533 -297 31 C-297.58330078 31.4832373 -298.16660156 31.96647461 -298.76757812 32.46435547 C-310.67105993 42.32934996 -321.47686001 52.76497246 -331 65 C-331.43892578 65.5465625 -331.87785156 66.093125 -332.33007812 66.65625 C-348.60385941 86.93623336 -360.54957113 110.03866951 -369.87109375 134.21875 C-371 137 -371 137 -372 138 C-373.56172745 138.08685603 -375.12729344 138.10702219 -376.69140625 138.09765625 C-377.63564453 138.09443359 -378.57988281 138.09121094 -379.55273438 138.08789062 C-380.54595703 138.07951172 -381.53917969 138.07113281 -382.5625 138.0625 C-383.55958984 138.05798828 -384.55667969 138.05347656 -385.58398438 138.04882812 C-388.05604849 138.03700007 -390.52799518 138.02051849 -393 138 C-380.5324702 93.55027903 -352.98028559 49.36882112 -317 20 C-316.15824219 19.27039063 -315.31648438 18.54078125 -314.44921875 17.7890625 C-301.63087474 6.79199876 -287.7107969 -2.72023118 -273 -11 C-272.29713867 -11.39928711 -271.59427734 -11.79857422 -270.87011719 -12.20996094 C-188.08446714 -58.82465004 -78.17433369 -54.6750759 0 0 Z " fill="#0E0E0F" transform="translate(2149,345)"/>
<path d="M0 0 C1.38735352 0.07178467 1.38735352 0.07178467 2.80273438 0.14501953 C48.39379182 2.65010112 93.37629079 15.12874465 132 40 C132.66402832 40.42748535 133.32805664 40.8549707 134.01220703 41.29541016 C157.20517825 56.40471002 178.91810102 75.19967438 196 97 C196.77859375 97.96164062 197.5571875 98.92328125 198.359375 99.9140625 C240.23553142 152.59266692 257.97615786 220.75800818 250.74609375 287.2734375 C245.8207153 327.16002259 231.9828873 368.35662562 208 401 C207.56751953 401.59796387 207.13503906 402.19592773 206.68945312 402.81201172 C191.60501234 423.63329916 174.54916521 443.4752316 153.7109375 458.73779297 C151.94361125 460.04159958 150.20560877 461.37859038 148.46875 462.72265625 C138.84015845 470.09264124 128.65401919 476.23017573 118 482 C117.14519043 482.46438477 116.29038086 482.92876953 115.40966797 483.40722656 C100.15589454 491.59576678 82.41977767 501.0313265 65 503 C64.97207634 501.39594109 64.9532057 499.79172506 64.9375 498.1875 C64.92589844 497.29417969 64.91429687 496.40085937 64.90234375 495.48046875 C65.03839909 490.63145632 65.52253342 485.82580374 66 481 C66.58265625 480.76925781 67.1653125 480.53851562 67.765625 480.30078125 C80.13698732 475.37946888 92.24413412 470.25655071 104 464 C105.06613525 463.4419165 105.06613525 463.4419165 106.15380859 462.87255859 C122.87717754 454.08483596 137.86781654 443.51385087 152 431 C152.91652344 430.19433594 153.83304688 429.38867188 154.77734375 428.55859375 C163.36750152 420.92433323 170.85086949 413.00954254 178 404 C178.81855469 402.98679687 179.63710937 401.97359375 180.48046875 400.9296875 C186.77680873 393.04365934 192.09354028 384.81132755 197 376 C197.46696289 375.16710449 197.93392578 374.33420898 198.41503906 373.47607422 C213.44639919 346.41472978 223.11725727 317.54155576 228 287 C228.11859375 286.27876953 228.2371875 285.55753906 228.359375 284.81445312 C237.34621995 227.8442753 220.28269401 167.34023739 187.03125 120.796875 C184.1097565 116.79339935 181.08129005 112.88134065 178 109 C177.5678418 108.45069824 177.13568359 107.90139648 176.69042969 107.33544922 C164.67371262 92.18656694 150.71784002 78.2771603 135 67 C134.06124023 66.3186499 134.06124023 66.3186499 133.10351562 65.62353516 C123.4678625 58.67004518 113.53164781 52.49867852 103 47 C102.25250488 46.60458008 101.50500977 46.20916016 100.73486328 45.80175781 C67.18862971 28.26733272 29.71665818 19.50320662 -8.0625 19.6875 C-9.26731018 19.69073273 -9.26731018 19.69073273 -10.49645996 19.69403076 C-61.5547974 19.91253104 -111.16722033 36.21095641 -152 67 C-152.56783203 67.42361816 -153.13566406 67.84723633 -153.72070312 68.28369141 C-203.40485559 105.5187989 -234.98954158 160.48598677 -244.49755859 221.77124023 C-245.07355633 225.84010912 -245.5614062 229.91425094 -246 234 C-246.13019531 235.13566406 -246.26039062 236.27132812 -246.39453125 237.44140625 C-246.70013472 240.63190643 -246.8801587 243.796969 -247 247 C-247.02723145 247.70930664 -247.05446289 248.41861328 -247.08251953 249.14941406 C-249.09192076 310.18971551 -225.14704508 371.02655078 -183.875 415.8125 C-181.93073117 417.88867814 -179.96900368 419.94729797 -178 422 C-177.21753906 422.82371094 -176.43507813 423.64742187 -175.62890625 424.49609375 C-170.12857843 430.15329367 -164.22684724 435.16044011 -158 440 C-157.46165527 440.42007324 -156.92331055 440.84014648 -156.36865234 441.27294922 C-135.56104641 457.38495416 -111.8751379 470.42066247 -87.0625 479.23046875 C-85 480 -85 480 -84 481 C-83.91314397 482.56172745 -83.89297781 484.12729344 -83.90234375 485.69140625 C-83.90556641 486.63564453 -83.90878906 487.57988281 -83.91210938 488.55273438 C-83.92048828 489.54595703 -83.92886719 490.53917969 -83.9375 491.5625 C-83.94201172 492.55958984 -83.94652344 493.55667969 -83.95117188 494.58398438 C-83.96299993 497.05604849 -83.97948151 499.52799518 -84 502 C-120.16777183 491.81616539 -153.99189463 472.87048267 -181.5078125 447.30859375 C-183.69709164 445.28059379 -185.92299995 443.31788817 -188.1875 441.375 C-195.04489472 435.38174852 -201.03470128 428.93809498 -206.7265625 421.828125 C-208.17511102 420.02615055 -209.64694922 418.24248128 -211.1484375 416.484375 C-231.56956313 392.45084808 -246.6294206 362.99076658 -256 333 C-256.23557617 332.24654297 -256.47115234 331.49308594 -256.71386719 330.71679688 C-259.36874925 322.05907878 -261.45573712 313.32471458 -263.1875 304.4375 C-263.3424292 303.64802979 -263.4973584 302.85855957 -263.65698242 302.04516602 C-266.43878983 287.00947426 -267.37874511 272.2016837 -267.3125 256.9375 C-267.31034485 256.03925507 -267.3081897 255.14101013 -267.30596924 254.21554565 C-267.10124396 200.87869343 -250.56943388 147.62707903 -218 105 C-217.57928223 104.43796875 -217.15856445 103.8759375 -216.72509766 103.296875 C-209.45076717 93.58683295 -201.42023716 84.72439986 -193 76 C-192.10023437 75.05898438 -191.20046875 74.11796875 -190.2734375 73.1484375 C-184.54499194 67.27450761 -178.44606292 62.06787896 -172 57 C-171.03707031 56.22011719 -170.07414062 55.44023437 -169.08203125 54.63671875 C-122.621962 17.71597931 -59.56005441 -3.39550443 0 0 Z " fill="#0E0E0F" transform="translate(1431,307)"/>
<path d="M0 0 C0.02716824 2.54173977 0.04691969 5.08318415 0.0625 7.625 C0.07087891 8.33785156 0.07925781 9.05070312 0.08789062 9.78515625 C0.09437152 11.19799093 0.0786972 12.61111028 0.0402832 14.0234375 C0.00493192 15.75800689 0.07958828 17.49408917 0.171875 19.2265625 C-1.29048036 22.68747018 -2.28118759 22.91147157 -5.64453125 24.421875 C-7.69252562 25.21877706 -9.74926793 25.993424 -11.8125 26.75 C-14.02296372 27.61698369 -16.23127447 28.48947483 -18.4375 29.3671875 C-19.54609375 29.80514648 -20.6546875 30.24310547 -21.796875 30.69433594 C-46.27961437 40.67403793 -69.35816105 55.68752453 -88.62109375 73.7734375 C-90.71780132 75.73587315 -92.86327314 77.59242299 -95.0625 79.4375 C-137.59707071 116.60110659 -160.72407246 178.93965404 -164.71875 233.9453125 C-168.09222577 290.01853481 -150.08248543 347.02069722 -115 391 C-114.28328125 391.90878906 -113.5665625 392.81757812 -112.828125 393.75390625 C-107.18554697 400.78711965 -101.18080803 407.4415271 -95 414 C-93.96552734 415.09828125 -93.96552734 415.09828125 -92.91015625 416.21875 C-87.65991423 421.63004239 -81.90601111 426.32505717 -76 431 C-75.02289062 431.7940625 -74.04578125 432.588125 -73.0390625 433.40625 C-38.8781935 460.59726915 2.97089635 476.32299682 46 482 C46.76183594 482.103125 47.52367187 482.20625 48.30859375 482.3125 C110.79142828 489.700673 173.90350596 469.80303818 223.1875 431.5625 C230.13207936 426.07136883 236.61263535 420.12318702 243 414 C243.94746094 413.10539062 244.89492188 412.21078125 245.87109375 411.2890625 C253.00650245 404.38644018 259.07530635 396.93350465 265 389 C265.43199707 388.42878418 265.86399414 387.85756836 266.30908203 387.26904297 C273.07288357 378.29079485 278.72781465 368.91869277 284 359 C284.50611816 358.06945801 284.50611816 358.06945801 285.02246094 357.12011719 C299.17727165 331.00621763 307.6221054 301.45761596 311 272 C311.0928125 271.19159668 311.185625 270.38319336 311.28125 269.55029297 C315.76173616 226.03357114 307.06380571 183.16908266 288 144 C287.64180176 143.26297852 287.28360352 142.52595703 286.91455078 141.76660156 C276.4126556 120.45520421 262.41804013 101.1298496 246 84 C245.44715332 83.41460449 244.89430664 82.82920898 244.32470703 82.22607422 C234.97802218 72.36546446 225.06337839 63.87906552 214 56 C213.37657715 55.55317871 212.7531543 55.10635742 212.11083984 54.64599609 C196.09489955 43.27609811 178.80331621 34.47590815 160.63208008 27.10571289 C156.72813793 25.46570232 152.86947121 23.71976498 149 22 C149 15.07 149 8.14 149 1 C181.28091147 10.68427344 210.86987802 25.61473393 237 47 C237.5372168 47.43570313 238.07443359 47.87140625 238.62792969 48.3203125 C252.70676386 59.79985114 265.93948133 72.56580961 277 87 C278.15628906 88.43085938 278.15628906 88.43085938 279.3359375 89.890625 C320.9533543 142.14214514 338.30673467 209.96994965 331.36376953 275.91259766 C326.64791976 315.93718572 312.77785717 357.16188598 289 390 C288.55930176 390.60908203 288.11860352 391.21816406 287.66455078 391.84570312 C272.27819703 412.99998563 254.94039789 433.40827006 233.62695312 448.82177734 C231.9806663 450.01400127 230.35721121 451.23313422 228.734375 452.45703125 C172.93553686 494.01754517 101.50663582 510.00913538 32.97265625 500.03515625 C-6.16716048 493.7872544 -44.74982755 479.31620097 -77 456 C-78.02996094 455.26265625 -79.05992187 454.5253125 -80.12109375 453.765625 C-112.74603242 429.83784163 -139.21124841 399.89299443 -158 364 C-158.4345752 363.17032715 -158.86915039 362.3406543 -159.31689453 361.48583984 C-190.56781437 300.97118121 -194.85110695 230.45984855 -174.375 165.76171875 C-159.2737563 119.98496859 -130.32443623 76.5992764 -92 47 C-90.56527344 45.83984375 -90.56527344 45.83984375 -89.1015625 44.65625 C-67.39176376 27.37590642 -29.16075032 0 0 0 Z " fill="#0E0E0F" transform="translate(765,307)"/>
<path d="M0 0 C17.49 0 34.98 0 53 0 C54.9916373 4.6471537 56.62511858 8.74374563 58.00195312 13.52563477 C58.36697937 14.78508408 58.73200562 16.04453339 59.10809326 17.34214783 C59.49922511 18.70854452 59.89027502 20.07496466 60.28125 21.44140625 C60.69550333 22.87658521 61.11016471 24.31164644 61.52520752 25.74659729 C62.62827033 29.56436168 63.72589689 33.38366804 64.8223114 37.20334625 C65.95188348 41.13558624 67.08595719 45.06652716 68.21972656 48.99755859 C69.56751555 53.6716028 70.91485085 58.34577529 72.25982666 63.02062988 C74.74443355 71.65558503 77.24269851 80.2862993 79.765625 88.91015625 C80.28844109 90.7004308 80.81122917 92.49071353 81.33398438 94.28100586 C82.03419338 96.67851081 82.73548034 99.07566639 83.44067383 101.47171021 C84.06293177 103.58690016 84.6804744 105.7034097 85.296875 107.8203125 C85.63041992 108.95742676 85.96396484 110.09454102 86.30761719 111.26611328 C87 114 87 114 87 117 C87.66 117 88.32 117 89 117 C89.33414917 115.09081787 89.33414917 115.09081787 89.67504883 113.14306641 C91.33596112 104.86630606 93.8362899 96.8080141 96.19921875 88.7109375 C96.71803229 86.92194754 97.23648322 85.13285238 97.7545929 83.34365845 C99.1176648 78.6402471 100.48570322 73.93829463 101.85479736 69.2366333 C103.22331396 64.5336427 104.5870095 59.82925505 105.95117188 55.125 C111.28322557 36.74487623 116.64138148 18.37240635 122 0 C139.49 0 156.98 0 175 0 C175 54.12 175 108.24 175 164 C164.11 164 153.22 164 142 164 C141.67 123.41 141.34 82.82 141 41 C125.28533517 91.96171135 125.28533517 91.96171135 109.8515625 143.00854492 C109.53631622 144.05876328 109.22106995 145.10898163 108.89627075 146.19102478 C108.31396254 148.1310792 107.73347644 150.07168193 107.15524292 152.01295471 C106.89889069 152.86622849 106.64253845 153.71950226 106.37841797 154.59863281 C106.04920853 155.70020721 106.04920853 155.70020721 105.71334839 156.82403564 C104.91671207 159.25405757 103.94974668 161.6256333 103 164 C92.11 164 81.22 164 70 164 C58 123 46 82 34 41 C33.67 81.59 33.34 122.18 33 164 C22.11 164 11.22 164 0 164 C0 109.88 0 55.76 0 0 Z " fill="#D48C54" transform="translate(1715,31)"/>
<path d="M0 0 C93.15384615 0 93.15384615 0 107.625 13.4375 C111.57326517 17.69747032 114.4816098 21.53063348 116.6875 26.9375 C117.10386719 27.93652344 117.52023437 28.93554688 117.94921875 29.96484375 C122.39362328 42.80239886 120.78070944 58.51703242 115.81640625 70.96875 C110.7132063 81.26188985 102.72744046 88.23009986 93 94 C95.57857251 99.04411422 98.16229213 104.0855662 100.75 109.125 C101.13549011 109.87585876 101.52098022 110.62671753 101.91815186 111.40032959 C107.1228444 121.52783107 112.39402894 131.60717147 117.97949219 141.53173828 C122.0795899 148.89265195 125.39858023 156.28267192 129 164 C116.13 164 103.26 164 90 164 C82.24837126 149.95017291 74.74197175 135.80853405 67.43359375 121.52514648 C67.10258667 120.87943695 66.77157959 120.23372742 66.43054199 119.56845093 C65.52961147 117.81018422 64.63093472 116.05076319 63.73242188 114.29125977 C62.46551889 111.88439405 61.1596543 109.5488023 59.78320312 107.20678711 C58 104 58 104 58 102 C50.74 102 43.48 102 36 102 C36 122.46 36 142.92 36 164 C24.12 164 12.24 164 0 164 C0 109.88 0 55.76 0 0 Z M36 29 C36 43.85 36 58.7 36 74 C41.878125 74.0928125 41.878125 74.0928125 47.875 74.1875 C49.08913574 74.21481201 50.30327148 74.24212402 51.55419922 74.27026367 C60.66476765 74.33920451 69.16353809 73.20871201 76.53125 67.45703125 C81.34955305 62.67717211 83.12464453 56.82089337 83.25 50.1875 C83.16980787 44.1285388 81.61426059 39.97298517 77.75 35.25 C71.58969405 30.20974967 65.21207084 28.86721786 57.484375 28.90234375 C55.79393066 28.90609009 55.79393066 28.90609009 54.06933594 28.90991211 C52.64395508 28.91901611 51.21857422 28.92812012 49.75 28.9375 C45.2125 28.958125 40.675 28.97875 36 29 Z " fill="#D48C54" transform="translate(1000,31)"/>
<path d="M0 0 C93.45339912 0 93.45339912 0 108.25390625 14.03125 C118.78152784 25.90131998 119.87859785 39.55395921 119.16845703 54.73730469 C118.81757027 59.45037505 117.77947823 63.63740822 116 68 C115.6596875 68.845625 115.319375 69.69125 114.96875 70.5625 C111.01201348 79.33148364 105.40370385 85.71534897 97.2265625 90.76953125 C96.24510254 91.38030518 95.26364258 91.9910791 94.25244141 92.62036133 C93.50913574 93.07564209 92.76583008 93.53092285 92 94 C92.48243164 94.90951416 92.96486328 95.81902832 93.46191406 96.75610352 C95.72555956 101.02439893 97.9880294 105.29331677 100.25 109.5625 C100.65883423 110.33409454 101.06766846 111.10568909 101.4888916 111.90066528 C107.07154166 122.43950092 112.63202587 132.98886935 118.11816406 143.57836914 C120.94464981 149.02332399 123.86714778 154.40330212 126.87207031 159.75219727 C128 162 128 162 128 164 C115.13 164 102.26 164 89 164 C86.7725 159.66875 84.545 155.3375 82.25 150.875 C76.94472468 140.58782847 71.55310712 130.35908104 65.94628906 120.23193359 C62.81150424 114.55759049 59.86821754 108.8140944 57 103 C46.11 102.505 46.11 102.505 35 102 C35 122.46 35 142.92 35 164 C23.45 164 11.9 164 0 164 C0 109.88 0 55.76 0 0 Z M35 29 C35 43.85 35 58.7 35 74 C40.878125 74.0928125 40.878125 74.0928125 46.875 74.1875 C48.08913574 74.21481201 49.30327148 74.24212402 50.55419922 74.27026367 C60.00808705 74.34180245 68.46058367 73.10333703 76 67 C81.68707526 60.99697611 82.46567202 54.99710977 82.31640625 46.9765625 C81.72709969 41.43271557 79.59801533 37.73901669 75.875 33.6875 C67.18072968 28.58434133 58.2159139 28.61642208 48.375 28.8125 C43.96125 28.874375 39.5475 28.93625 35 29 Z " fill="#D48C54" transform="translate(33,31)"/>
<path d="M0 0 C14.85 0 29.7 0 45 0 C53.0195389 20.62167147 53.0195389 20.62167147 55.296875 27.30078125 C55.85855635 28.92537603 56.42024278 30.54996904 56.98193359 32.17456055 C57.26864929 33.00805023 57.55536499 33.84153992 57.85076904 34.70028687 C63.89028509 52.24472639 70.0973193 69.72706718 76.375 87.1875 C77.97305321 91.63527413 79.57063948 96.08321583 81.16796875 100.53125 C81.5640181 101.63411346 81.96006744 102.73697693 82.36811829 103.8732605 C86.44589242 115.23362711 90.50548247 126.60041436 94.54547119 137.97427368 C95.30306499 140.10584894 96.06180208 142.23701822 96.82171631 144.36776733 C97.86725897 147.30009754 98.9088054 150.23381541 99.94921875 153.16796875 C100.26071365 154.03921387 100.57220856 154.91045898 100.8931427 155.80810547 C103 161.77129692 103 161.77129692 103 164 C90.13 164 77.26 164 64 164 C61.57423317 158.54202463 59.34762248 153.43661205 57.421875 147.84765625 C57.20557434 147.22144882 56.98927368 146.59524139 56.76641846 145.95005798 C56.3175981 144.64762984 55.87072128 143.34453034 55.42578125 142.04077148 C54.74239871 140.04024809 54.05130461 138.04250316 53.359375 136.04492188 C52.92142158 134.77098912 52.48390506 133.49690606 52.046875 132.22265625 C51.65338867 131.07547119 51.25990234 129.92828613 50.85449219 128.74633789 C50 126 50 126 50 124 C32.18 124 14.36 124 -4 124 C-4.66 126.97 -5.32 129.94 -6 133 C-6.7591316 135.56405196 -7.55316914 138.11804391 -8.3828125 140.66015625 C-8.78387207 141.89644775 -9.18493164 143.13273926 -9.59814453 144.40649414 C-10.10200684 145.94297607 -10.60586914 147.47945801 -11.125 149.0625 C-13.538125 156.4565625 -13.538125 156.4565625 -16 164 C-28.21 164 -40.42 164 -53 164 C-52.25962396 158.81736769 -51.44769733 154.85621473 -49.8137207 150.00292969 C-49.59194027 149.33858791 -49.37015984 148.67424614 -49.14165878 147.9897728 C-48.40864914 145.79854457 -47.66720964 143.61026745 -46.92578125 141.421875 C-46.40425046 139.86766359 -45.88330219 138.31325659 -45.36289978 136.75866699 C-44.2585544 133.46302707 -43.15068877 130.16860153 -42.03991699 126.87512207 C-39.43717995 119.15718676 -36.85238109 111.43323696 -34.26565933 103.70992279 C-33.41165161 101.16071365 -32.55693067 98.61174447 -31.70211792 96.06280518 C-27.4842563 83.48014614 -23.33224108 70.87736111 -19.25 58.25 C-12.95373945 38.79228925 -6.48889786 19.39459473 0 0 Z M22 34 C19.51755469 41.63916985 17.03982599 49.27984624 14.56812286 56.92249775 C13.42029443 60.47114383 12.27084157 64.01924651 11.11767578 67.56616211 C10.00510462 70.98841938 8.89680148 74.41203157 7.79145813 77.83662987 C7.36875987 79.14367133 6.94451975 80.45021518 6.51872253 81.75625038 C5.92312957 83.58398313 5.33349633 85.41365471 4.74414062 87.2434082 C4.40660767 88.28487503 4.06907471 89.32634186 3.72131348 90.39936829 C2.86636456 93.03200896 2.86636456 93.03200896 3 96 C15.87 96 28.74 96 42 96 C40.33343136 88.45448659 40.33343136 88.45448659 38.21240234 81.11303711 C37.87220062 80.05261703 37.5319989 78.99219696 37.18148804 77.89964294 C36.81995636 76.78678421 36.45842468 75.67392548 36.0859375 74.52734375 C35.5241832 72.78185997 35.5241832 72.78185997 34.95108032 71.00111389 C33.76284752 67.31200643 32.56901384 63.62473993 31.375 59.9375 C30.56473259 57.42525002 29.75483288 54.91288142 28.9453125 52.40039062 C26.96779462 46.26554796 24.98568431 40.13220397 23 34 C22.67 34 22.34 34 22 34 Z " fill="#D48C54" transform="translate(1390,31)"/>
<path d="M0 0 C34.65 0 69.3 0 105 0 C105 9.9 105 19.8 105 30 C82.23 30 59.46 30 36 30 C36 42.54 36 55.08 36 68 C57.45 68 78.9 68 101 68 C101 77.57 101 87.14 101 97 C79.55 97 58.1 97 36 97 C36 109.21 36 121.42 36 134 C60.09 134 84.18 134 109 134 C109 143.9 109 153.8 109 164 C73.03 164 37.06 164 0 164 C0 109.88 0 55.76 0 0 Z " fill="#D48C54" transform="translate(2127,31)"/>
<path d="M0 0 C34.65 0 69.3 0 105 0 C105 9.9 105 19.8 105 30 C81.9 30 58.8 30 35 30 C35 42.54 35 55.08 35 68 C56.78 68 78.56 68 101 68 C101 77.57 101 87.14 101 97 C79.22 97 57.44 97 35 97 C35 109.21 35 121.42 35 134 C59.42 134 83.84 134 109 134 C109 143.9 109 153.8 109 164 C73.03 164 37.06 164 0 164 C0 109.88 0 55.76 0 0 Z " fill="#D48C54" transform="translate(383,31)"/>
<path d="M0 0 C34.32 0 68.64 0 104 0 C104 9.9 104 19.8 104 30 C81.56 30 59.12 30 36 30 C36 43.53 36 57.06 36 71 C56.79 71 77.58 71 99 71 C99 80.57 99 90.14 99 100 C78.21 100 57.42 100 36 100 C36 121.12 36 142.24 36 164 C24.12 164 12.24 164 0 164 C0 109.88 0 55.76 0 0 Z " fill="#D48C54" transform="translate(719,31)"/>
</svg>
