<?xml version="1.0" encoding="UTF-8"?>
<svg id="Layer_1" data-name="Layer 1" xmlns="http://www.w3.org/2000/svg" viewBox="0 0 802.54 292.95">
  <defs>
    <style>
      .cls-1 {
        fill: #d38b54;
      }

      .cls-2 {
        fill: #d48b54;
      }

      .cls-3 {
        fill: #d48b53;
      }

      .cls-4 {
        fill: #d48b52;
      }

      .cls-5 {
        fill: #0f0e0e;
      }

      .cls-6 {
        fill: #f9f8f3;
      }

      .cls-7 {
        fill: #d48c54;
      }

      .cls-8 {
        fill: #fcfaf6;
      }

      .cls-9 {
        fill: #d48a53;
      }

      .cls-10 {
        fill: #0e0e0e;
      }
    </style>
  </defs>
  <path class="cls-5" d="M264.46,128.82c-14.44,7.85-25.53,18.89-33.36,33.15-4.9,8.92-8.01,18.46-9.39,28.58-.78,5.73-.99,11.48-.56,17.21.74,9.99,3.24,19.58,7.47,28.7,3.42,7.36,7.81,14.1,13.2,20.15,5.11,5.74,10.88,10.76,17.39,14.88,9.45,5.98,19.68,9.94,30.68,11.89,4.74.84,9.54,1.08,14.35,1.09,10.69.02,20.96-2.04,30.85-6.07,8.8-3.59,16.72-8.57,23.83-14.88,8.18-7.24,14.58-15.82,19.33-25.61,3.9-8.03,6.4-16.5,7.56-25.38.73-5.61.91-11.23.5-16.82-.84-11.25-3.86-21.94-9.1-31.98-7.47-14.3-18.17-25.54-32.12-33.59-4.08-2.36-8.54-4.07-12.84-6.06-.73-.34-1.5-.58-2.3-.89v-7.04c3.27,1.27,6.39,2.36,9.41,3.67,8.64,3.75,16.46,8.77,23.52,15.03,14.23,12.62,23.45,28.23,27.85,46.68,1,4.18,1.6,8.48,2.05,12.76.51,4.84.5,9.74.05,14.58-1.76,18.56-8.38,35.19-20.32,49.55-7.57,9.1-16.62,16.44-27.17,21.92-7.94,4.13-16.27,7.03-25.04,8.72-6.94,1.34-13.96,1.91-21,1.49-19.25-1.16-36.59-7.5-51.74-19.58-11-8.77-19.46-19.53-25.41-32.25-3.61-7.71-6.03-15.79-7.3-24.21-.8-5.3-.96-10.63-.87-15.98.2-11.39,2.74-22.24,7.23-32.66,3.37-7.83,7.85-14.97,13.28-21.54,6.95-8.4,15.22-15.19,24.67-20.56,5.19-2.95,10.64-5.37,16.34-7.21.83-.27,1.68-.47,2.71-.75-.14,2.51-.28,4.84-.4,6.93-4.5,2.03-8.87,4.01-13.37,6.06Z"/>
  <path class="cls-10" d="M780.98,241.36c4.39-8.42,7.23-17.19,8.65-26.42.66-4.28.83-8.6.83-12.92,0-9.91-1.85-19.48-5.35-28.72-3.24-8.56-7.82-16.34-13.64-23.41-7.38-8.97-16.31-16-26.64-21.25-6.97-3.54-14.33-5.95-22.02-7.44-7.02-1.35-14.11-1.61-21.2-1.18-9.04.54-17.73,2.72-26.09,6.2-7.55,3.15-14.52,7.29-20.79,12.52-9.11,7.59-16.49,16.59-21.66,27.32-1.64,3.4-3.05,6.92-4.6,10.47h-6.75c.49-1.48.89-2.82,1.38-4.12,3.56-9.6,8.52-18.39,15.03-26.32,10.75-13.11,24.19-22.35,40.11-27.99,5.81-2.06,11.82-3.44,17.96-4.15,3.28-.38,6.59-.72,9.89-.74,3.44-.02,6.87.39,10.31.6,5.43.32,10.71,1.48,15.9,3.01,12.25,3.61,23.27,9.53,32.97,17.87,7.35,6.32,13.56,13.6,18.54,21.92,5.73,9.56,9.56,19.84,11.49,30.82,1.15,6.54,1.67,13.15,1.29,19.77-.54,9.41-2.35,18.6-5.7,27.45-4.86,12.8-12.18,23.96-22.1,33.43-12.52,11.94-27.23,19.66-44.18,23.12-6.85,1.4-13.75,1.94-20.74,1.69-19.89-.69-37.56-7.38-53.04-19.78-10.47-8.38-18.6-18.7-24.27-30.88-1.77-3.8-3.15-7.77-4.69-11.67-.24-.62-.36-1.29-.59-2.13,2.47.14,4.8.28,6.97.4,1.78,4.03,3.43,8.1,5.35,12.04,3.01,6.18,6.99,11.72,11.51,16.9,5.48,6.28,11.8,11.53,18.88,15.89,9.09,5.59,18.91,9.35,29.45,11.03,4.52.72,9.13,1.19,13.71,1.2,11.12.02,21.88-2.09,32.18-6.4,8.58-3.59,16.36-8.45,23.27-14.63,7.48-6.69,13.67-14.44,18.38-23.51Z"/>
  <path class="cls-10" d="M29.9,246.38c11.86,18.47,28.26,30.68,49.34,36.15,21.03,5.46,41.33,3.02,60.49-7.34,19.19-10.38,32.1-26.19,39.41-46.71h7.04c-1.28,3.32-2.38,6.51-3.72,9.59-3.98,9.14-9.36,17.41-16.12,24.74-8.18,8.87-17.75,15.85-28.72,20.89-7.62,3.5-15.56,5.91-23.84,7.11-5.75.84-11.52,1.22-17.37.91-8.63-.46-17.01-2.01-25.17-4.84-10.62-3.67-20.19-9.16-28.73-16.47-8.11-6.94-14.78-15.07-19.98-24.38-4.35-7.79-7.55-16.06-9.32-24.81-.83-4.08-1.24-8.26-1.71-12.4-.25-2.21-.34-4.45-.35-6.68-.02-10.92,1.93-21.5,5.74-31.73,4-10.72,9.87-20.34,17.53-28.82,6.35-7.04,13.68-12.91,21.9-17.66,9.25-5.34,19.17-8.82,29.65-10.67,6.07-1.07,12.22-1.26,18.4-1.06,7.89.26,15.56,1.6,23.08,3.94,11,3.42,20.93,8.83,29.85,16.11,8.77,7.15,15.88,15.7,21.39,25.56,3.11,5.57,5.69,11.37,7.48,17.51.11.38.16.77.26,1.26-2.41-.15-4.69-.3-7.05-.45-10.23-27.87-29.37-46.57-58.31-54.3-21.46-5.73-42.24-2.86-61.53,8.11-42.07,23.92-54.25,76.85-29.61,116.42Z"/>
  <path class="cls-10" d="M491.79,119.31c-5.38.47-10.47,1.49-15.45,2.98-9.69,2.89-18.58,7.4-26.64,13.53-11.1,8.45-19.5,19.06-25.3,31.73-3.57,7.81-5.8,15.99-6.88,24.49-.67,5.26-.78,10.56-.36,15.81.89,11.23,3.85,21.91,9.04,31.98,4.75,9.21,10.98,17.25,18.67,24.13,8.16,7.29,17.46,12.76,27.83,16.35.32.11.62.24,1.03.4v6.93c-1.41-.46-2.74-.85-4.04-1.33-10.14-3.73-19.39-9.02-27.61-16.02-12.39-10.55-21.28-23.55-26.71-38.89-2.15-6.07-3.55-12.34-4.36-18.71-.75-5.91-.92-11.88-.37-17.81,1.65-17.89,7.86-34.05,19.05-48.16,8.28-10.44,18.42-18.63,30.41-24.55,8.01-3.95,16.38-6.7,25.18-8.16,6.28-1.04,12.62-1.6,18.97-1.21,8.24.51,16.35,1.87,24.22,4.54,10.5,3.56,20.06,8.74,28.67,15.77,10.9,8.9,19.24,19.72,25.08,32.5,3.48,7.62,5.8,15.58,7.04,23.85.83,5.5.93,11.03.78,16.59-.34,12.78-3.62,24.82-9.25,36.23-3.55,7.2-8.1,13.74-13.47,19.73-6.39,7.13-13.74,13.04-22.03,17.79-5.77,3.31-11.81,6.05-18.21,7.92-.32.09-.65.19-.98.25-.12.02-.25-.03-.48-.07.14-2.27.28-4.55.43-6.93,2.42-.98,4.93-1.95,7.39-3.02,11.1-4.82,20.64-11.76,28.68-20.82,6.87-7.74,12.13-16.42,15.71-26.12,2.16-5.85,3.64-11.85,4.5-18.04.8-5.74,1.02-11.49.54-17.21-1.38-16.66-7.11-31.71-17.45-44.92-8.51-10.86-19.08-19.14-31.68-24.77-7.26-3.25-14.86-5.36-22.76-6.46-5.66-.79-11.34-.66-17.02-.57-.67.01-1.34.17-2.2.27Z"/>
  <path class="cls-9" d="M651.31,50.31c-5.72-.04-4.49.85-5.91-4.53-2.3-8.7-4.44-17.45-6.65-26.17-.12-.49-.32-.97-.77-1.39-.14,10.52-.28,21.03-.43,31.75-3.47.18-6.67.35-10.03.53-.08-.82-.2-1.41-.19-1.99.07-13.76.15-27.52.25-41.28.01-1.89.21-3.78.26-5.67.03-1.02.43-1.48,1.47-1.46,2.91.06,5.83.1,8.74.13,1.69.02,3.37,0,5.25,0,2.82,10.17,5.59,20.16,8.37,30.14h.55c2.92-9.93,5.83-19.88,8.76-29.85h14.06c.46,1.58.6,46.85.2,49.65-2.27.66-7.61.7-9.59-.03-.02-5.11-.04-10.31-.05-15.52,0-5.12,0-10.23-.23-15.38-1.22,1.39-1.25,3.17-1.77,4.76-.54,1.67-.84,3.41-1.25,5.12-.43,1.78-.85,3.56-1.28,5.33-.42,1.71-.84,3.42-1.27,5.12-.43,1.7-.89,3.4-1.32,5.11-.43,1.7-.83,3.41-1.3,5.3-1.94.11-3.8.22-5.86.33Z"/>
  <path class="cls-3" d="M45.09,49.78c-.49.3-.97.56-1.46.57-3.25.08-6.5.09-9.75.16-1.1.02-1.88-.31-2.57-1.25-3.85-5.22-7.77-10.4-11.68-15.58-.73-.97-1.46-1.96-2.32-2.82-.43-.43-1.12-.73-1.73-.82-.93-.13-1.89-.03-2.84-.03-2.39,0-2.42,0-2.43,2.33-.02,5.08-.02,10.16-.02,15.24,0,.81,0,1.61,0,2.67-3.52.21-6.87.09-10.29.07V.64c.7-.14,1.2-.33,1.69-.32,9.96.07,19.91.18,29.87.23,2.21.01,3.55,1.49,5.03,2.71,2.44,2.01,3.52,4.9,4.63,7.72.6,1.53.75,3.12.48,4.78-.34,2.07-.62,4.1-1.61,6.03-1.38,2.69-3.5,4.39-6.25,5.44-1.17.45-2.36.86-3.87,1.4,1.01.96,1.79,1.69,2.56,2.44,2.88,2.8,5.16,6.08,7.26,9.46,1.85,2.98,3.54,6.06,5.31,9.25M14.96,20.7c1.95-.1,3.9-.24,5.85-.29,1.47-.03,2.94.09,4.41.07.65-.01,1.39-.05,1.94-.35,2.03-1.11,3.49-4.49,2.83-6.69-.34-1.14-.97-2.14-2.33-2.58-2.14-.69-4.29-1.12-6.54-1.09-3.3.04-6.59,0-9.83,0-.5,1.47-.42,9.19.12,10.93,1,0,2.07,0,3.54,0Z"/>
  <path class="cls-2" d="M127.95,28.89c0-9.47,0-18.74,0-28.16.8-.08,1.38-.18,1.97-.19,8.87-.15,17.74-.3,26.62-.43,2.9-.04,5.81,0,9,0,.15,2.99.26,5.92-.03,9.12-.75.05-1.46.14-2.17.14-7.18,0-14.37,0-21.55,0-.47,0-.95,0-1.42,0-.74,0-1.14.39-1.14,1.12,0,2.69-.31,5.4.56,8.2,8.32.18,16.63.36,25.15.55.05,1.04.13,2.03.15,3.02.02,1.56.04,3.12,0,4.68-.04,1.32-.25,1.51-1.58,1.55-.95.03-1.9-.03-2.85-.03-6.64,0-13.28,0-19.93,0-1.74,0-1.91.07-1.87,1.8.08,3.5.27,7,.42,10.66.91.08,1.63.18,2.35.19,5.42.04,10.84.02,16.26.09,2.44.03,4.87.19,7.31.31.32.02.64.12,1.24.24-.16,2.79-.32,5.53-.48,8.27-1.01.79-2.12.65-3.18.65-9.42.04-18.84.07-28.26.1-1.96,0-3.91,0-5.99,0-.54-1.22-.52-2.5-.53-3.77-.03-5.96-.04-11.93-.05-18.1Z"/>
  <path class="cls-7" d="M783.2.56c6.22-.09,12.23-.19,18.49-.28.23,3.14.26,6.14.04,9.38h-26.73c.12,2.99-.16,5.73.23,8.48.16,1.13.77,1.47,1.79,1.46,1.36,0,2.71.02,4.07.04,6.03.11,12.05.25,18.08.33,1.07.01,1.74.35,1.75,1.46.04,2.35.01,4.71.01,7.32h-25.04c-.07.83-.15,1.42-.17,2-.12,3.04-.24,6.07-.34,9.11-.01.33.06.66.13,1.28,1.52.13,3.04.35,4.56.36,6.44.07,12.88.08,19.32.12.34,0,.68-.01,1.02.03,1.93.23,2.17.45,2.13,2.42-.04,1.76-.17,3.52-.32,5.27-.11,1.27-.31,1.44-1.69,1.47-2.44.05-4.88.06-7.32.06-4.05,0-8.11-.04-12.16.01-4.88.07-9.75.23-14.63.34-.66.01-1.32-.06-1.93-.09-.45-1.55-.52-48.44-.1-50.59,6.18,0,12.39,0,18.8,0Z"/>
  <path class="cls-4" d="M504.9,50.56c-3.6.04-7.05.04-10.77.04.05-.6-.03-1.28.19-1.84,1.68-4.28,3.43-8.53,5.15-12.8,2.45-6.09,4.89-12.18,7.33-18.28,2.12-5.27,4.24-10.54,6.34-15.82.34-.84.81-1.32,1.79-1.33,2.64-.02,5.28-.07,7.92-.19,1.06-.05,1.6.39,1.98,1.32,1.7,4.2,3.43,8.39,5.18,12.56,1.96,4.67,4,9.32,5.95,14,1.72,4.12,3.36,8.28,5.06,12.41,1.06,2.57,2.17,5.11,3.23,7.67.25.6.4,1.24.68,2.12-2.57.36-4.91.33-7.25.13-.54-.04-1.09-.24-1.61-.15-2.17.37-3.18-.76-3.86-2.64-.8-2.23-1.85-4.36-2.64-6.59-.47-1.34-1.27-1.74-2.59-1.73-5.35.05-10.71.05-16.06.04-1.13,0-1.71.46-2.04,1.54-.77,2.45-1.61,4.89-2.51,7.29-.3.79-.88,1.46-1.5,2.23M524.38,30.08c.4-.17.79-.33,1.32-.55-2.38-5.28-4.69-10.39-7-15.49-.15.02-.31.05-.46.07-1.59,5.25-3.19,10.5-4.85,15.98,3.78,0,7.21,0,10.99,0Z"/>
  <path class="cls-1" d="M272.66,19.65c3.12,0,6.03-.01,8.95,0,1.9.01,1.97.12,1.92,1.94-.05,1.63-.05,3.25-.09,4.88-.02.66-.09,1.33-.15,2.1-.64.08-1.16.18-1.68.19-2.91.04-5.83.02-8.74.08-2.64.06-5.28.18-7.91.29-1.41.06-1.57.21-1.59,1.73-.08,5.83-.14,11.65-.21,17.48,0,.73,0,1.46,0,2.24h-9.8c-.11-.52-.2-.78-.21-1.04-.13-4.13-.28-8.26-.36-12.39-.15-8.06-.25-16.12-.4-24.18-.06-3.38-.19-6.77-.26-10.15-.01-.66.07-1.32.12-2.2,11.72-.35,23.32-.73,35.21-.62-.24,3.2-.46,6.12-.69,9.13-7.86.69-15.56.48-23.48.54-.2,3.33-.32,6.46,0,9.65,1.62.55,3.18.24,4.71.29,1.49.05,2.98.01,4.68.01Z"/>
  <path class="cls-8" d="M14.76,20.7c-1.27,0-2.34,0-3.34,0-.54-1.74-.63-9.46-.12-10.93,3.23,0,6.53.03,9.83,0,2.25-.03,4.4.4,6.54,1.09,1.36.44,1.99,1.44,2.33,2.58.66,2.2-.8,5.58-2.83,6.69-.55.3-1.28.34-1.94.35-1.47.02-2.94-.1-4.41-.07-1.95.05-3.9.19-6.05.29Z"/>
  <path class="cls-6" d="M524.21,30.08c-3.61,0-7.04,0-10.82,0,1.66-5.48,3.26-10.73,4.85-15.98.15-.02.31-.05.46-.07,2.31,5.11,4.61,10.22,7,15.49-.53.22-.92.39-1.5.56Z"/>
  <path class="cls-3" d="M417.68,49.9c-.49.3-.97.56-1.46.57-3.25.08-6.5.09-9.75.16-1.1.02-1.88-.31-2.57-1.25-3.85-5.22-7.77-10.4-11.68-15.58-.73-.97-1.46-1.96-2.32-2.82-.43-.43-1.12-.73-1.73-.82-.93-.13-1.89-.03-2.84-.03-2.39,0-2.42,0-2.43,2.33-.02,5.08-.02,10.16-.02,15.24,0,.81,0,1.61,0,2.67-3.52.21-6.87.09-10.29.07V.76c.7-.14,1.2-.33,1.69-.32,9.96.07,19.91.18,29.87.23,2.21.01,3.55,1.49,5.03,2.71,2.44,2.01,3.52,4.9,4.63,7.72.6,1.53.75,3.12.48,4.78-.34,2.07-.62,4.1-1.61,6.03-1.38,2.69-3.5,4.39-6.25,5.44-1.17.45-2.36.86-3.87,1.4,1.01.96,1.79,1.69,2.56,2.44,2.88,2.8,5.16,6.08,7.26,9.46,1.85,2.98,3.54,6.06,5.31,9.25M387.56,20.83c1.95-.1,3.9-.24,5.85-.29,1.47-.03,2.94.09,4.41.07.65-.01,1.39-.05,1.94-.35,2.03-1.11,3.49-4.49,2.83-6.69-.34-1.14-.97-2.14-2.33-2.58-2.14-.69-4.29-1.12-6.54-1.09-3.3.04-6.59,0-9.83,0-.5,1.47-.42,9.19.12,10.93,1,0,2.07,0,3.54,0Z"/>
</svg>